<svg id="svg" version="1.1" xmlns="http://www.w3.org/2000/svg" xmlns:xlink="http://www.w3.org/1999/xlink" width="400" height="400" viewBox="0, 0, 400,400"><g id="svgg"><path id="path0" d="M0.000 200.000 L 0.000 400.000 200.000 400.000 L 400.000 400.000 400.000 200.000 L 400.000 0.000 200.000 0.000 L 0.000 0.000 0.000 200.000 M293.558 84.760 C 293.410 85.000,293.790 85.051,294.573 84.894 C 295.463 84.716,295.745 84.773,295.548 85.091 C 295.373 85.374,295.481 85.458,295.843 85.319 C 296.745 84.972,298.854 86.262,300.977 88.459 C 302.051 89.571,302.314 89.766,301.563 88.893 L 300.195 87.306 301.693 88.672 C 303.498 90.319,305.248 93.159,304.853 93.799 C 304.664 94.104,304.735 94.157,305.060 93.957 C 305.426 93.730,305.481 93.877,305.273 94.531 C 305.067 95.182,305.121 95.332,305.484 95.108 C 305.852 94.881,305.907 95.071,305.705 95.873 C 305.529 96.574,305.577 96.854,305.845 96.688 C 306.128 96.514,306.223 111.454,306.154 145.386 C 306.066 188.593,305.986 194.336,305.469 194.336 C 305.071 194.336,304.883 193.939,304.884 193.103 C 304.885 192.424,304.726 191.969,304.530 192.090 C 304.334 192.211,304.273 191.930,304.394 191.467 C 304.535 190.927,304.465 190.716,304.199 190.881 C 303.933 191.045,303.862 190.835,304.004 190.295 C 304.145 189.755,304.075 189.544,303.808 189.709 C 303.542 189.874,303.472 189.663,303.613 189.124 C 303.734 188.660,303.655 188.281,303.437 188.281 C 303.220 188.281,303.146 188.008,303.274 187.675 C 303.425 187.282,303.349 187.166,303.059 187.345 C 302.754 187.534,302.682 187.353,302.832 186.779 C 302.974 186.234,302.904 186.028,302.632 186.196 C 302.366 186.361,302.303 186.217,302.460 185.806 C 302.598 185.448,302.521 185.156,302.290 185.156 C 302.059 185.156,301.974 184.883,302.102 184.550 C 302.254 184.154,302.178 184.041,301.882 184.223 C 301.577 184.412,301.514 184.285,301.687 183.833 C 301.840 183.435,301.787 183.259,301.558 183.401 C 301.206 183.619,301.021 182.996,301.066 181.742 C 301.076 181.476,300.898 181.373,300.671 181.514 C 300.411 181.674,300.353 181.520,300.515 181.098 C 300.657 180.730,300.628 180.518,300.451 180.627 C 300.008 180.900,298.752 178.174,299.077 177.647 C 299.221 177.414,299.165 177.331,298.951 177.463 C 298.738 177.595,298.157 176.980,297.661 176.097 C 297.095 175.090,296.962 174.599,297.305 174.780 C 297.606 174.938,297.482 174.745,297.029 174.350 C 295.968 173.424,293.620 169.936,293.620 169.286 C 293.620 169.010,293.482 168.869,293.314 168.973 C 292.897 169.231,292.144 167.759,292.494 167.372 C 292.648 167.201,292.598 167.160,292.383 167.280 C 292.168 167.400,291.655 167.047,291.242 166.497 C 290.765 165.861,290.694 165.601,291.047 165.785 C 291.352 165.944,291.294 165.821,290.918 165.513 C 290.285 164.995,290.241 163.811,290.325 149.566 L 290.416 134.180 290.625 149.609 L 290.834 165.039 290.925 149.121 L 291.016 133.203 179.691 133.203 L 68.367 133.203 68.361 210.001 C 68.358 252.240,68.241 286.984,68.102 287.210 C 67.943 287.466,68.039 287.503,68.356 287.307 C 68.738 287.071,68.815 287.246,68.668 288.016 C 68.545 288.657,68.622 288.946,68.873 288.791 C 69.126 288.635,69.169 288.815,68.991 289.279 C 68.836 289.684,68.815 289.909,68.945 289.779 C 69.239 289.485,71.378 291.495,71.190 291.890 C 71.115 292.049,71.326 292.074,71.659 291.946 C 71.993 291.818,72.266 291.873,72.266 292.067 C 72.266 292.262,72.925 292.374,73.730 292.316 C 74.987 292.226,75.057 292.259,74.219 292.552 C 73.658 292.747,117.037 292.907,176.167 292.928 L 279.092 292.963 284.175 298.094 C 286.971 300.916,289.008 303.086,288.703 302.916 C 288.298 302.690,288.213 302.774,288.387 303.228 C 288.736 304.137,284.111 307.809,283.450 307.148 C 283.314 307.012,283.203 307.116,283.203 307.380 C 283.203 307.643,283.027 307.750,282.813 307.617 C 282.598 307.484,282.422 307.581,282.422 307.831 C 282.422 308.082,282.158 308.186,281.836 308.062 C 281.514 307.938,281.250 308.028,281.250 308.261 C 281.250 308.494,280.898 308.593,280.468 308.480 C 280.038 308.368,279.758 308.391,279.845 308.533 C 279.955 308.710,108.573 308.762,67.067 308.597 C 66.678 308.595,66.459 308.434,66.579 308.240 C 66.699 308.045,66.419 307.985,65.955 308.106 C 65.382 308.256,65.201 308.183,65.389 307.879 C 65.568 307.588,65.452 307.513,65.059 307.663 C 64.725 307.792,64.453 307.692,64.453 307.441 C 64.453 307.190,64.277 307.094,64.062 307.227 C 63.848 307.359,63.672 307.282,63.672 307.054 C 63.672 306.827,63.540 306.675,63.379 306.718 C 62.718 306.893,61.335 306.165,61.578 305.771 C 61.725 305.534,61.659 305.460,61.429 305.602 C 61.204 305.741,60.605 305.491,60.099 305.046 C 59.594 304.601,59.427 304.366,59.728 304.523 C 60.092 304.712,60.182 304.654,59.994 304.351 C 59.839 304.099,59.564 303.985,59.383 304.097 C 58.508 304.638,53.345 297.320,53.667 295.996 C 53.768 295.582,53.669 295.413,53.418 295.568 C 53.151 295.733,53.081 295.523,53.222 294.983 C 53.343 294.520,53.264 294.141,53.046 294.141 C 52.815 294.141,52.755 293.720,52.903 293.131 C 53.067 292.477,53.013 292.210,52.750 292.373 C 52.469 292.547,52.344 262.467,52.344 194.922 C 52.344 127.376,52.469 97.297,52.750 97.471 C 53.013 97.633,53.067 97.367,52.903 96.712 C 52.748 96.095,52.813 95.703,53.070 95.703 C 53.302 95.703,53.390 95.439,53.266 95.117 C 53.143 94.795,53.246 94.531,53.497 94.531 C 53.747 94.531,53.840 94.350,53.704 94.129 C 52.641 92.409,61.085 84.530,63.144 85.320 C 63.504 85.458,63.611 85.374,63.436 85.091 C 63.239 84.771,63.539 84.717,64.490 84.899 C 65.427 85.079,65.647 85.041,65.234 84.771 C 64.850 84.519,103.999 84.385,179.222 84.381 C 254.339 84.377,293.714 84.507,293.558 84.760 M83.099 102.492 C 83.216 102.681,83.069 102.755,82.773 102.656 C 82.476 102.557,81.998 102.712,81.710 103.000 C 81.422 103.287,80.981 103.405,80.730 103.261 C 80.479 103.117,80.384 103.124,80.519 103.275 C 80.653 103.426,80.113 104.207,79.318 105.010 C 78.523 105.813,77.952 106.709,78.050 107.000 C 78.148 107.296,78.047 107.420,77.821 107.280 C 77.568 107.124,77.499 107.345,77.637 107.873 C 77.758 108.337,77.698 108.618,77.503 108.498 C 77.305 108.377,77.148 109.370,77.148 110.744 C 77.148 112.099,77.303 113.112,77.492 112.995 C 77.681 112.878,77.755 113.025,77.656 113.321 C 77.557 113.618,77.712 114.096,78.000 114.383 C 78.287 114.671,78.405 115.112,78.261 115.364 C 78.117 115.615,78.124 115.710,78.275 115.575 C 78.583 115.301,81.080 117.614,80.951 118.052 C 80.906 118.206,81.159 118.220,81.514 118.084 C 81.944 117.919,82.066 117.987,81.880 118.289 C 81.697 118.584,81.810 118.660,82.206 118.508 C 82.540 118.380,82.813 118.454,82.813 118.672 C 82.813 118.889,83.192 118.968,83.655 118.847 C 84.166 118.714,84.402 118.781,84.255 119.019 C 84.106 119.259,84.670 119.396,85.719 119.373 C 86.657 119.353,87.327 119.176,87.206 118.981 C 87.086 118.786,87.366 118.726,87.830 118.847 C 88.293 118.968,88.672 118.889,88.672 118.672 C 88.672 118.454,88.945 118.380,89.278 118.508 C 89.626 118.642,89.783 118.576,89.646 118.355 C 89.417 117.985,89.995 117.788,90.820 117.955 C 91.035 117.998,91.098 117.921,90.959 117.782 C 90.674 117.496,92.624 115.396,93.052 115.529 C 93.206 115.577,93.220 115.325,93.084 114.970 C 92.919 114.540,92.987 114.418,93.289 114.605 C 93.593 114.793,93.657 114.666,93.484 114.214 C 93.320 113.786,93.379 113.638,93.647 113.804 C 93.919 113.972,93.990 113.766,93.847 113.221 C 93.726 112.757,93.786 112.476,93.981 112.597 C 94.178 112.719,94.336 111.806,94.336 110.547 C 94.336 109.230,94.199 108.467,94.009 108.729 C 93.812 109.001,93.759 108.831,93.875 108.301 C 93.981 107.817,93.920 107.422,93.740 107.422 C 93.426 107.422,92.752 105.808,92.950 105.530 C 93.233 105.131,90.849 103.214,90.321 103.416 C 89.890 103.581,89.808 103.499,90.035 103.131 C 90.238 102.802,90.203 102.707,89.939 102.871 C 89.458 103.168,88.210 102.776,88.442 102.400 C 88.527 102.262,87.312 102.148,85.742 102.148 C 84.172 102.148,82.983 102.303,83.099 102.492 M112.730 102.400 C 112.946 102.749,111.730 103.178,111.293 102.908 C 111.097 102.787,110.938 102.885,110.938 103.125 C 110.938 103.365,110.757 103.450,110.537 103.314 C 110.317 103.178,110.183 103.212,110.240 103.389 C 110.296 103.566,109.729 104.326,108.980 105.078 C 108.230 105.830,107.600 106.665,107.578 106.934 C 107.490 108.034,107.408 108.241,107.129 108.068 C 106.968 107.968,106.836 109.083,106.836 110.545 C 106.836 112.037,106.992 113.108,107.190 112.986 C 107.385 112.866,107.446 113.148,107.325 113.611 C 107.203 114.075,107.263 114.356,107.458 114.235 C 107.786 114.033,107.982 114.598,107.849 115.361 C 107.818 115.538,107.973 115.572,108.193 115.436 C 108.414 115.300,108.616 115.374,108.643 115.602 C 108.669 115.829,108.713 116.235,108.740 116.504 C 108.767 116.772,108.965 117.007,109.180 117.026 C 110.075 117.103,110.915 117.688,110.680 118.070 C 110.539 118.297,110.612 118.365,110.842 118.223 C 111.402 117.877,112.553 118.348,112.270 118.807 C 112.136 119.023,112.480 119.062,113.111 118.904 C 113.713 118.753,114.085 118.789,113.963 118.986 C 113.844 119.178,114.514 119.353,115.453 119.373 C 116.502 119.396,117.066 119.259,116.917 119.019 C 116.770 118.781,117.006 118.714,117.517 118.847 C 117.980 118.968,118.359 118.889,118.359 118.672 C 118.359 118.454,118.632 118.380,118.966 118.508 C 119.313 118.642,119.470 118.576,119.333 118.355 C 119.105 117.985,119.682 117.788,120.508 117.955 C 120.723 117.998,120.788 117.924,120.653 117.789 C 120.518 117.654,121.059 116.886,121.854 116.084 C 122.649 115.281,123.219 114.385,123.122 114.093 C 123.024 113.798,123.125 113.674,123.350 113.813 C 123.604 113.970,123.673 113.748,123.535 113.221 C 123.414 112.757,123.474 112.476,123.669 112.595 C 123.865 112.716,124.023 111.802,124.023 110.545 C 124.023 109.287,123.866 108.375,123.669 108.497 C 123.474 108.617,123.414 108.337,123.535 107.873 C 123.677 107.328,123.607 107.122,123.335 107.290 C 123.066 107.456,123.007 107.308,123.171 106.880 C 123.324 106.482,123.272 106.306,123.042 106.448 C 122.688 106.667,122.483 106.130,122.620 105.342 C 122.650 105.165,122.519 105.117,122.328 105.235 C 121.988 105.445,120.496 104.073,120.519 103.572 C 120.526 103.434,120.288 103.376,119.992 103.444 C 119.695 103.512,119.567 103.383,119.708 103.156 C 119.868 102.896,119.713 102.839,119.292 103.001 C 118.864 103.165,118.716 103.106,118.882 102.837 C 119.049 102.567,118.828 102.485,118.262 102.609 C 117.732 102.726,117.562 102.672,117.834 102.475 C 118.091 102.289,117.061 102.148,115.430 102.148 C 113.859 102.148,112.645 102.262,112.730 102.400 M142.483 102.503 C 142.602 102.698,142.321 102.758,141.857 102.637 C 141.312 102.494,141.106 102.565,141.274 102.837 C 141.440 103.106,141.292 103.165,140.864 103.001 C 140.495 102.859,140.290 102.899,140.407 103.089 C 140.593 103.389,139.758 103.969,138.997 104.068 C 138.624 104.116,138.094 104.692,138.037 105.111 C 138.010 105.308,137.966 105.655,137.939 105.882 C 137.913 106.110,137.688 106.171,137.440 106.017 C 137.174 105.853,137.094 105.909,137.246 106.154 C 137.592 106.714,137.121 107.866,136.662 107.582 C 136.446 107.449,136.406 107.793,136.565 108.424 C 136.736 109.105,136.690 109.403,136.438 109.248 C 136.198 109.100,136.044 109.608,136.044 110.547 C 136.044 111.485,136.199 111.994,136.438 111.846 C 136.681 111.696,136.757 111.995,136.637 112.625 C 136.519 113.242,136.594 113.554,136.826 113.410 C 137.038 113.280,137.133 113.406,137.038 113.691 C 136.943 113.976,137.190 114.534,137.587 114.931 C 137.985 115.328,138.221 115.797,138.112 115.973 C 138.004 116.149,138.393 116.714,138.977 117.228 L 140.039 118.164 139.258 117.169 C 138.537 116.250,138.557 116.255,139.517 117.235 C 140.089 117.819,140.661 118.193,140.787 118.067 C 140.913 117.942,141.016 118.038,141.016 118.282 C 141.016 118.535,141.295 118.618,141.666 118.476 C 142.061 118.325,142.218 118.384,142.068 118.627 C 141.914 118.877,142.221 118.964,142.883 118.858 C 143.570 118.749,143.773 118.811,143.458 119.035 C 143.148 119.255,143.682 119.381,144.922 119.381 C 146.162 119.381,146.696 119.255,146.386 119.035 C 146.071 118.811,146.274 118.749,146.961 118.858 C 147.623 118.964,147.930 118.877,147.776 118.627 C 147.624 118.381,147.787 118.326,148.198 118.484 C 148.650 118.657,148.778 118.593,148.589 118.289 C 148.401 117.984,148.528 117.920,148.980 118.093 C 149.431 118.267,149.559 118.203,149.370 117.898 C 149.187 117.601,149.302 117.526,149.704 117.681 C 150.385 117.942,151.661 116.753,151.814 115.715 C 151.866 115.355,152.154 114.880,152.454 114.659 C 152.753 114.438,152.916 114.014,152.816 113.715 C 152.706 113.389,152.807 113.280,153.068 113.442 C 153.370 113.628,153.436 113.315,153.282 112.422 C 153.113 111.442,153.159 111.273,153.477 111.719 C 153.800 112.173,153.889 111.953,153.873 110.742 C 153.855 109.470,153.784 109.325,153.487 109.961 C 153.200 110.578,153.147 110.440,153.238 109.305 C 153.305 108.458,153.198 107.963,152.977 108.099 C 152.762 108.232,152.708 108.053,152.851 107.681 C 152.993 107.310,152.910 107.031,152.657 107.031 C 152.413 107.031,152.320 106.925,152.449 106.796 C 152.579 106.666,152.014 105.883,151.195 105.055 C 150.375 104.227,149.815 103.426,149.950 103.275 C 150.085 103.124,149.990 103.117,149.739 103.261 C 149.487 103.405,149.046 103.287,148.758 103.000 C 148.471 102.712,147.993 102.557,147.696 102.656 C 147.400 102.755,147.253 102.681,147.370 102.492 C 147.487 102.303,146.386 102.148,144.924 102.148 C 143.432 102.148,142.360 102.304,142.483 102.503 M236.914 146.114 C 236.152 146.322,236.699 146.365,238.477 146.237 C 240.497 146.092,241.058 146.151,240.625 146.464 C 240.188 146.779,240.477 146.820,241.759 146.626 C 242.999 146.438,243.402 146.489,243.204 146.810 C 243.010 147.124,243.296 147.181,244.182 147.003 C 245.070 146.826,245.354 146.883,245.159 147.199 C 244.964 147.513,245.262 147.579,246.172 147.422 C 247.160 147.252,247.324 147.299,246.875 147.623 C 246.431 147.944,246.611 147.984,247.619 147.790 C 248.515 147.618,248.866 147.670,248.693 147.949 C 248.529 148.215,248.740 148.285,249.279 148.144 C 249.893 147.984,250.039 148.058,249.817 148.418 C 249.589 148.786,249.736 148.841,250.391 148.633 C 251.005 148.438,251.186 148.489,250.993 148.802 C 250.797 149.119,251.028 149.172,251.783 148.982 C 252.533 148.794,252.769 148.846,252.577 149.157 C 252.401 149.442,252.519 149.517,252.909 149.368 C 253.243 149.240,253.516 149.324,253.516 149.555 C 253.516 149.787,253.808 149.863,254.166 149.726 C 254.641 149.544,254.729 149.618,254.492 150.000 C 254.256 150.382,254.344 150.456,254.819 150.274 C 255.669 149.948,256.708 150.357,256.379 150.889 C 256.218 151.149,256.364 151.212,256.772 151.055 C 257.567 150.750,258.669 151.124,258.376 151.599 C 258.259 151.789,258.464 151.828,258.833 151.687 C 259.324 151.499,259.418 151.568,259.183 151.947 C 258.977 152.280,259.015 152.371,259.289 152.201 C 259.813 151.878,263.319 153.529,263.046 153.970 C 262.938 154.145,263.152 154.172,263.520 154.031 C 263.972 153.857,264.099 153.921,263.911 154.226 C 263.722 154.531,263.850 154.595,264.302 154.421 C 264.723 154.259,264.877 154.317,264.717 154.577 C 264.572 154.812,264.755 154.967,265.141 154.936 C 265.517 154.907,265.772 155.114,265.713 155.400 C 265.654 155.685,265.785 155.806,266.005 155.671 C 267.270 154.889,284.585 169.807,283.830 171.028 C 283.693 171.249,283.787 171.558,284.038 171.713 C 284.342 171.901,284.400 171.811,284.210 171.447 C 284.053 171.145,284.289 171.312,284.734 171.818 C 285.179 172.324,285.453 172.883,285.343 173.061 C 285.233 173.238,285.349 173.511,285.601 173.666 C 285.886 173.843,285.954 173.780,285.779 173.498 C 285.626 173.250,285.574 173.047,285.664 173.047 C 285.809 173.047,286.968 174.728,289.289 178.305 C 289.845 179.162,289.887 179.381,289.453 179.150 C 289.131 178.979,289.246 179.161,289.708 179.556 C 290.738 180.434,293.475 185.826,293.154 186.344 C 293.027 186.550,293.128 186.719,293.378 186.719 C 293.629 186.719,293.729 186.991,293.601 187.325 C 293.449 187.721,293.525 187.834,293.821 187.652 C 294.123 187.465,294.191 187.588,294.024 188.022 C 293.887 188.380,293.963 188.672,294.195 188.672 C 294.426 188.672,294.510 188.945,294.382 189.278 C 294.231 189.671,294.307 189.787,294.597 189.608 C 294.902 189.419,294.974 189.601,294.825 190.174 C 294.683 190.714,294.753 190.924,295.020 190.760 C 295.286 190.595,295.356 190.806,295.215 191.346 C 295.074 191.886,295.144 192.096,295.410 191.932 C 295.677 191.767,295.747 191.977,295.606 192.518 C 295.465 193.058,295.535 193.268,295.801 193.104 C 296.067 192.939,296.138 193.149,295.996 193.689 C 295.857 194.224,295.926 194.439,296.187 194.278 C 296.450 194.115,296.528 194.391,296.402 195.047 C 296.282 195.673,296.358 195.976,296.597 195.829 C 296.837 195.680,296.912 195.987,296.790 196.622 C 296.682 197.191,296.763 197.656,296.972 197.656 C 297.185 197.656,297.241 198.126,297.101 198.730 C 296.905 199.575,296.944 199.679,297.285 199.219 C 297.616 198.772,297.664 199.050,297.487 200.391 C 297.311 201.719,297.359 202.005,297.683 201.563 C 298.006 201.121,298.056 201.459,297.886 202.930 C 297.720 204.371,297.771 204.729,298.078 204.297 C 298.382 203.870,298.437 204.508,298.281 206.641 C 298.143 208.535,298.192 209.294,298.420 208.789 C 298.653 208.274,298.769 209.674,298.762 212.891 C 298.754 216.111,298.636 217.441,298.416 216.797 C 298.205 216.180,298.157 216.972,298.285 218.945 C 298.433 221.206,298.375 221.908,298.075 221.484 C 297.772 221.054,297.721 221.417,297.886 222.852 C 298.051 224.280,298.001 224.647,297.700 224.219 C 297.395 223.786,297.352 224.031,297.533 225.158 C 297.715 226.290,297.657 226.609,297.311 226.395 C 296.970 226.185,296.916 226.396,297.112 227.174 C 297.306 227.948,297.252 228.163,296.916 227.955 C 296.581 227.748,296.527 227.963,296.721 228.736 C 296.915 229.510,296.861 229.725,296.526 229.518 C 296.190 229.310,296.136 229.525,296.330 230.299 C 296.508 231.005,296.459 231.281,296.187 231.112 C 295.926 230.951,295.857 231.166,295.996 231.701 C 296.157 232.315,296.083 232.461,295.723 232.239 C 295.355 232.011,295.300 232.158,295.508 232.813 C 295.685 233.370,295.642 233.602,295.391 233.447 C 295.148 233.297,295.080 233.528,295.215 234.045 C 295.376 234.659,295.301 234.805,294.942 234.582 C 294.574 234.355,294.519 234.501,294.727 235.156 C 294.915 235.750,294.867 235.950,294.578 235.771 C 294.309 235.605,294.236 235.733,294.382 236.113 C 294.510 236.446,294.426 236.719,294.195 236.719 C 293.963 236.719,293.887 237.011,294.024 237.369 C 294.191 237.803,294.123 237.926,293.821 237.739 C 293.525 237.556,293.449 237.670,293.601 238.066 C 293.729 238.400,293.629 238.672,293.378 238.672 C 293.128 238.672,293.027 238.840,293.154 239.046 C 293.444 239.516,290.754 244.922,290.229 244.922 C 290.017 244.922,289.865 245.054,289.890 245.215 C 290.019 246.034,289.795 246.501,289.393 246.252 C 289.114 246.079,289.048 246.145,289.220 246.423 C 289.376 246.676,288.463 248.365,287.127 250.292 C 284.946 253.438,282.373 256.717,282.988 255.566 C 283.333 254.921,283.021 254.942,282.475 255.601 C 282.142 256.002,282.289 256.342,283.108 257.065 L 284.174 258.008 283.396 257.064 C 282.967 256.544,290.615 264.162,300.391 273.991 C 310.166 283.820,318.221 292.113,318.291 292.420 C 318.361 292.727,318.558 292.892,318.728 292.787 C 319.669 292.206,326.723 301.221,326.321 302.490 C 326.184 302.922,326.246 303.125,326.473 302.985 C 326.877 302.735,327.380 304.589,327.292 306.006 C 327.260 306.528,327.122 306.329,326.920 305.469 C 326.653 304.329,326.626 304.442,326.758 306.152 C 326.853 307.379,326.758 308.203,326.521 308.203 C 326.304 308.203,326.231 308.374,326.360 308.582 C 326.997 309.612,322.381 314.731,321.218 314.284 C 320.935 314.176,320.703 314.269,320.703 314.492 C 320.703 314.727,320.355 314.786,319.873 314.633 C 319.314 314.456,319.130 314.511,319.310 314.802 C 319.495 315.101,318.783 315.234,316.992 315.234 C 315.388 315.234,314.498 315.088,314.646 314.848 C 314.779 314.632,314.633 314.558,314.313 314.681 C 313.999 314.802,313.155 314.605,312.438 314.244 C 310.874 313.457,284.717 287.504,285.010 287.030 C 285.122 286.848,284.990 286.748,284.715 286.807 C 284.440 286.866,284.207 286.650,284.197 286.328 C 284.188 286.006,284.004 285.742,283.789 285.742 C 283.574 285.742,279.648 281.963,275.065 277.344 C 270.481 272.725,266.862 269.195,267.023 269.500 C 267.240 269.911,267.142 269.988,266.645 269.797 C 266.276 269.656,266.074 269.701,266.196 269.898 C 266.409 270.243,264.956 270.939,264.355 270.781 C 264.194 270.738,264.063 270.889,264.063 271.117 C 264.063 271.344,263.887 271.422,263.672 271.289 C 263.457 271.156,263.281 271.244,263.281 271.484 C 263.281 271.725,263.105 271.812,262.891 271.680 C 262.676 271.547,262.500 271.633,262.500 271.872 C 262.500 272.445,259.853 273.538,259.297 273.194 C 259.015 273.020,258.975 273.107,259.183 273.444 C 259.416 273.819,259.325 273.893,258.853 273.711 C 258.496 273.574,258.203 273.643,258.203 273.863 C 258.203 274.084,258.027 274.156,257.813 274.023 C 257.598 273.891,257.422 273.987,257.422 274.237 C 257.422 274.489,257.150 274.589,256.816 274.460 C 256.423 274.310,256.307 274.385,256.486 274.675 C 256.674 274.980,256.493 275.053,255.920 274.903 C 255.403 274.767,255.172 274.835,255.322 275.078 C 255.477 275.329,255.245 275.372,254.688 275.195 C 254.049 274.993,253.889 275.046,254.102 275.391 C 254.314 275.735,254.154 275.789,253.516 275.586 C 252.877 275.383,252.717 275.437,252.930 275.781 C 253.143 276.126,252.982 276.179,252.344 275.977 C 251.689 275.769,251.543 275.824,251.770 276.192 C 251.992 276.551,251.846 276.626,251.232 276.465 C 250.697 276.325,250.482 276.395,250.644 276.656 C 250.812 276.928,250.536 276.976,249.830 276.799 C 249.057 276.605,248.841 276.659,249.049 276.994 C 249.256 277.330,249.041 277.384,248.268 277.190 C 247.490 276.994,247.278 277.048,247.489 277.389 C 247.701 277.732,247.445 277.790,246.526 277.606 C 245.638 277.428,245.354 277.485,245.549 277.801 C 245.745 278.117,245.461 278.174,244.573 277.997 C 243.697 277.821,243.402 277.878,243.591 278.184 C 243.784 278.495,243.312 278.552,241.950 278.381 C 240.545 278.204,240.246 278.243,240.820 278.530 C 241.385 278.812,240.788 278.873,238.672 278.751 C 236.853 278.646,236.113 278.703,236.719 278.900 C 237.322 279.097,235.602 279.223,232.227 279.230 C 228.727 279.238,227.039 279.117,227.539 278.895 C 228.030 278.677,227.320 278.637,225.623 278.788 C 223.817 278.948,223.009 278.894,223.175 278.625 C 223.337 278.362,222.783 278.284,221.575 278.399 C 220.213 278.529,219.881 278.467,220.313 278.166 C 220.746 277.863,220.491 277.813,219.336 277.973 C 218.155 278.137,217.917 278.087,218.359 277.767 C 218.803 277.447,218.623 277.407,217.615 277.601 C 216.634 277.789,216.361 277.734,216.574 277.389 C 216.784 277.048,216.573 276.994,215.795 277.190 C 215.021 277.384,214.806 277.330,215.014 276.994 C 215.221 276.659,215.006 276.605,214.232 276.799 C 213.430 277.000,213.240 276.945,213.467 276.578 C 213.689 276.219,213.548 276.159,212.940 276.352 C 212.458 276.505,212.109 276.445,212.109 276.210 C 212.109 275.988,211.846 275.907,211.523 276.031 C 211.201 276.154,210.938 276.077,210.938 275.860 C 210.938 275.642,210.558 275.563,210.095 275.684 C 209.522 275.834,209.341 275.761,209.530 275.457 C 209.709 275.166,209.593 275.091,209.200 275.242 C 208.867 275.370,208.594 275.285,208.594 275.054 C 208.594 274.823,208.302 274.746,207.944 274.883 C 207.472 275.064,207.381 274.991,207.613 274.615 C 207.827 274.270,207.782 274.191,207.479 274.379 C 206.955 274.703,205.376 274.294,205.621 273.898 C 205.711 273.752,205.328 273.605,204.769 273.572 C 204.211 273.538,203.551 273.233,203.303 272.894 C 203.055 272.555,202.738 272.392,202.598 272.532 C 202.458 272.672,202.344 272.587,202.344 272.343 C 202.344 272.099,202.094 271.995,201.788 272.113 C 201.482 272.230,200.867 271.961,200.421 271.515 C 199.975 271.068,199.565 270.729,199.512 270.760 C 199.119 270.991,197.698 270.170,197.906 269.833 C 198.062 269.581,197.985 269.523,197.716 269.690 C 196.092 270.693,178.198 254.977,179.171 253.403 C 179.308 253.181,179.226 253.123,178.986 253.271 C 178.483 253.582,177.628 252.204,178.041 251.747 C 178.195 251.576,178.136 251.542,177.910 251.670 C 177.685 251.798,177.276 251.544,177.002 251.106 C 176.594 250.451,176.597 250.359,177.022 250.588 C 177.306 250.741,177.084 250.452,176.527 249.945 C 175.149 248.690,174.128 246.947,174.458 246.413 C 174.624 246.144,174.554 246.082,174.279 246.252 C 173.876 246.501,173.653 246.034,173.782 245.215 C 173.807 245.054,173.642 244.922,173.414 244.922 C 173.187 244.922,173.109 244.746,173.242 244.531 C 173.375 244.316,173.287 244.141,173.047 244.141 C 172.807 244.141,172.719 243.965,172.852 243.750 C 172.984 243.535,172.911 243.359,172.689 243.359 C 172.149 243.359,171.000 241.093,171.296 240.614 C 171.425 240.405,171.326 240.234,171.075 240.234 C 170.824 240.234,170.724 239.962,170.852 239.628 C 170.980 239.295,170.924 239.121,170.727 239.243 C 170.262 239.530,169.786 238.036,170.152 237.443 C 170.320 237.171,170.263 237.094,170.010 237.250 C 169.498 237.566,168.976 236.129,169.371 235.490 C 169.558 235.188,169.480 235.142,169.139 235.352 C 168.758 235.588,168.683 235.454,168.847 234.826 C 168.989 234.286,168.918 234.076,168.652 234.240 C 168.386 234.405,168.315 234.195,168.457 233.655 C 168.578 233.192,168.506 232.813,168.296 232.813 C 168.086 232.813,168.034 232.441,168.180 231.982 C 168.374 231.371,168.313 231.233,167.949 231.457 C 167.589 231.680,167.515 231.534,167.675 230.920 C 167.796 230.457,167.716 230.078,167.496 230.078 C 167.276 230.078,167.188 229.726,167.301 229.296 C 167.429 228.805,167.351 228.610,167.090 228.771 C 166.812 228.943,166.758 228.615,166.925 227.776 C 167.101 226.898,167.045 226.605,166.737 226.795 C 166.425 226.988,166.374 226.626,166.562 225.545 C 166.764 224.378,166.724 224.160,166.389 224.609 C 166.055 225.058,166.007 224.784,166.185 223.438 C 166.360 222.112,166.312 221.824,165.990 222.266 C 165.673 222.701,165.617 222.151,165.773 220.117 C 165.907 218.370,165.857 217.665,165.636 218.164 C 165.417 218.657,165.289 216.495,165.289 212.305 C 165.289 208.155,165.418 205.957,165.633 206.445 C 165.850 206.940,165.889 206.381,165.740 204.920 C 165.578 203.339,165.634 202.694,165.918 202.869 C 166.195 203.041,166.269 202.577,166.143 201.465 C 165.995 200.166,166.050 199.932,166.399 200.391 C 166.748 200.850,166.788 200.691,166.583 199.658 C 166.404 198.749,166.455 198.422,166.749 198.603 C 167.042 198.784,167.097 198.473,166.925 197.615 C 166.742 196.696,166.799 196.440,167.142 196.652 C 167.483 196.862,167.537 196.651,167.341 195.873 C 167.164 195.167,167.213 194.891,167.485 195.059 C 167.741 195.218,167.819 195.019,167.691 194.532 C 167.579 194.102,167.667 193.750,167.887 193.750 C 168.106 193.750,168.187 193.371,168.066 192.908 C 167.925 192.368,167.995 192.158,168.261 192.322 C 168.528 192.487,168.598 192.276,168.457 191.736 C 168.315 191.196,168.386 190.986,168.652 191.150 C 168.918 191.315,168.989 191.105,168.847 190.564 C 168.697 189.991,168.770 189.810,169.075 189.998 C 169.365 190.178,169.440 190.062,169.290 189.669 C 169.162 189.335,169.246 189.063,169.477 189.063 C 169.709 189.063,169.785 188.770,169.648 188.412 C 169.467 187.941,169.540 187.850,169.916 188.082 C 170.262 188.296,170.340 188.251,170.152 187.947 C 169.786 187.354,170.262 185.860,170.727 186.147 C 170.924 186.269,170.989 186.119,170.871 185.813 C 170.754 185.507,170.924 184.992,171.248 184.667 C 171.572 184.343,171.729 183.969,171.596 183.836 C 171.463 183.703,171.570 183.594,171.833 183.594 C 172.096 183.594,172.203 183.418,172.070 183.203 C 171.938 182.988,172.025 182.813,172.266 182.813 C 172.506 182.813,172.594 182.637,172.461 182.422 C 172.328 182.207,172.416 182.031,172.656 182.031 C 172.896 182.031,172.984 181.855,172.852 181.641 C 172.719 181.426,172.796 181.250,173.024 181.250 C 173.251 181.250,173.403 181.118,173.360 180.957 C 173.186 180.296,173.913 178.913,174.307 179.156 C 174.559 179.312,174.617 179.235,174.452 178.968 C 174.099 178.397,178.104 172.526,181.595 168.498 C 184.126 165.576,190.250 159.891,189.103 161.527 C 188.803 161.955,189.155 161.666,189.884 160.886 C 191.463 159.196,194.427 156.978,193.989 157.813 C 193.820 158.135,194.064 157.959,194.531 157.422 C 194.998 156.885,195.243 156.709,195.074 157.031 C 194.906 157.354,195.353 157.036,196.069 156.326 C 196.802 155.598,197.611 155.127,197.924 155.247 C 198.230 155.365,198.371 155.287,198.239 155.074 C 198.025 154.726,198.541 154.519,199.316 154.641 C 199.478 154.667,199.609 154.505,199.609 154.283 C 199.609 153.730,205.914 150.719,206.557 150.965 C 206.860 151.082,206.963 150.987,206.807 150.735 C 206.629 150.446,206.828 150.397,207.422 150.586 C 208.081 150.795,208.224 150.740,207.993 150.366 C 207.773 150.011,207.872 149.939,208.334 150.117 C 208.692 150.254,208.984 150.177,208.984 149.946 C 208.984 149.715,209.257 149.630,209.591 149.758 C 209.984 149.909,210.100 149.834,209.920 149.543 C 209.732 149.239,209.913 149.166,210.486 149.316 C 211.026 149.457,211.237 149.387,211.072 149.121 C 210.908 148.854,211.118 148.784,211.658 148.925 C 212.198 149.067,212.409 148.997,212.244 148.730 C 212.080 148.464,212.290 148.394,212.830 148.535 C 213.365 148.675,213.580 148.605,213.419 148.344 C 213.256 148.081,213.532 148.004,214.188 148.129 C 214.814 148.249,215.117 148.173,214.969 147.933 C 214.816 147.686,215.119 147.641,215.795 147.810 C 216.573 148.006,216.784 147.952,216.574 147.611 C 216.362 147.268,216.618 147.210,217.537 147.394 C 218.425 147.572,218.709 147.515,218.513 147.199 C 218.318 146.883,218.602 146.826,219.490 147.003 C 220.376 147.181,220.662 147.124,220.467 146.810 C 220.270 146.490,220.655 146.439,221.844 146.629 C 223.048 146.822,223.419 146.771,223.216 146.442 C 223.011 146.110,223.546 146.054,225.238 146.231 C 226.757 146.390,227.273 146.350,226.758 146.115 C 226.248 145.882,228.084 145.765,232.031 145.777 C 235.889 145.789,237.661 145.911,236.914 146.114 M230.381 163.177 C 231.300 163.260,232.706 163.259,233.506 163.175 C 234.306 163.091,233.555 163.023,231.836 163.025 C 230.117 163.026,229.463 163.095,230.381 163.177 M225.526 163.801 C 225.777 163.981,225.206 164.036,224.239 163.925 C 222.998 163.783,222.663 163.839,223.067 164.122 C 223.475 164.408,223.223 164.461,222.159 164.313 C 221.155 164.174,220.769 164.244,220.948 164.533 C 221.126 164.821,220.868 164.872,220.143 164.690 C 219.369 164.496,219.154 164.549,219.361 164.885 C 219.569 165.221,219.354 165.275,218.580 165.080 C 217.801 164.885,217.591 164.939,217.802 165.280 C 218.005 165.609,217.840 165.682,217.248 165.528 C 216.708 165.386,216.497 165.457,216.662 165.723 C 216.827 165.989,216.616 166.060,216.076 165.918 C 215.531 165.776,215.325 165.846,215.493 166.118 C 215.658 166.384,215.514 166.447,215.103 166.290 C 214.745 166.152,214.453 166.229,214.453 166.460 C 214.453 166.691,214.180 166.776,213.847 166.648 C 213.454 166.497,213.338 166.573,213.517 166.863 C 213.706 167.167,213.524 167.240,212.951 167.090 C 212.406 166.948,212.200 167.018,212.368 167.290 C 212.534 167.559,212.386 167.618,211.958 167.454 C 211.506 167.280,211.379 167.344,211.567 167.649 C 211.756 167.954,211.628 168.018,211.177 167.844 C 210.808 167.703,210.602 167.742,210.720 167.932 C 210.965 168.329,209.852 168.850,209.381 168.558 C 209.208 168.451,208.958 168.645,208.827 168.988 C 208.686 169.355,208.339 169.517,207.984 169.381 C 207.639 169.249,207.483 169.315,207.620 169.536 C 207.751 169.748,207.672 169.922,207.445 169.922 C 207.217 169.922,206.943 169.922,206.836 169.922 C 206.729 169.922,206.283 170.280,205.845 170.717 C 205.408 171.155,204.853 171.391,204.613 171.243 C 204.347 171.079,204.285 171.150,204.455 171.424 C 204.708 171.833,204.221 172.056,203.389 171.912 C 203.212 171.881,203.178 172.036,203.314 172.256 C 203.450 172.476,203.376 172.678,203.148 172.705 C 202.921 172.732,202.573 172.776,202.376 172.803 C 202.179 172.830,201.872 173.012,201.693 173.207 C 201.501 173.416,201.609 173.445,201.953 173.276 C 202.275 173.118,202.206 173.260,201.798 173.591 C 201.390 173.923,200.919 174.109,200.751 174.005 C 200.582 173.901,200.317 174.021,200.162 174.273 C 199.973 174.578,200.062 174.632,200.428 174.435 C 200.730 174.272,200.365 174.641,199.618 175.253 C 198.871 175.866,198.194 176.305,198.113 176.228 C 197.889 176.017,194.544 179.392,194.710 179.661 C 194.790 179.790,194.387 180.427,193.814 181.076 C 193.242 181.726,192.949 181.987,193.164 181.656 C 193.503 181.133,193.466 181.124,192.875 181.587 C 192.502 181.880,192.276 182.250,192.375 182.409 C 192.473 182.567,192.282 183.031,191.951 183.439 C 191.619 183.846,191.477 183.916,191.635 183.594 C 191.804 183.249,191.776 183.142,191.567 183.333 C 191.371 183.512,191.189 183.820,191.162 184.017 C 191.135 184.214,191.091 184.561,191.064 184.789 C 191.038 185.016,190.835 185.091,190.615 184.955 C 190.395 184.819,190.240 184.852,190.271 185.030 C 190.410 185.827,190.200 186.353,189.834 186.127 C 189.614 185.991,189.459 186.024,189.490 186.201 C 189.627 186.989,189.421 187.526,189.067 187.307 C 188.838 187.166,188.785 187.341,188.938 187.739 C 189.115 188.200,189.050 188.319,188.729 188.121 C 188.472 187.962,188.308 187.977,188.364 188.155 C 188.546 188.723,187.422 191.013,187.069 190.795 C 186.881 190.679,186.824 190.835,186.941 191.140 C 187.058 191.446,186.924 191.939,186.644 192.235 C 186.363 192.531,186.115 192.993,186.094 193.262 C 186.004 194.386,185.920 194.566,185.583 194.358 C 185.388 194.238,185.328 194.519,185.450 194.982 C 185.591 195.523,185.521 195.733,185.254 195.568 C 184.988 195.404,184.918 195.614,185.059 196.154 C 185.200 196.694,185.130 196.905,184.864 196.740 C 184.597 196.576,184.527 196.786,184.668 197.326 C 184.810 197.866,184.739 198.077,184.473 197.912 C 184.207 197.747,184.136 197.958,184.278 198.498 C 184.432 199.090,184.359 199.255,184.030 199.052 C 183.689 198.841,183.635 199.051,183.830 199.830 C 184.000 200.506,183.955 200.809,183.707 200.656 C 183.468 200.508,183.392 200.811,183.512 201.437 C 183.645 202.135,183.567 202.373,183.266 202.187 C 182.955 201.995,182.898 202.285,183.075 203.166 C 183.242 204.004,183.188 204.334,182.911 204.162 C 182.632 203.990,182.567 204.436,182.714 205.528 C 182.838 206.451,182.779 207.057,182.579 206.933 C 182.375 206.808,182.227 209.241,182.227 212.696 C 182.227 215.985,182.373 218.473,182.552 218.225 C 182.731 217.976,182.776 218.649,182.652 219.727 C 182.486 221.166,182.537 221.525,182.843 221.094 C 183.163 220.642,183.223 220.799,183.103 221.777 C 183.018 222.476,183.112 223.047,183.313 223.047 C 183.514 223.047,183.564 223.501,183.425 224.056 C 183.242 224.786,183.301 224.985,183.640 224.776 C 183.968 224.573,184.042 224.738,183.887 225.330 C 183.766 225.793,183.847 226.172,184.067 226.172 C 184.286 226.172,184.374 226.524,184.262 226.954 C 184.133 227.446,184.211 227.640,184.473 227.479 C 184.739 227.314,184.810 227.524,184.668 228.064 C 184.526 228.610,184.596 228.816,184.868 228.647 C 185.134 228.483,185.197 228.626,185.040 229.037 C 184.902 229.395,184.979 229.688,185.210 229.688 C 185.441 229.688,185.526 229.960,185.398 230.294 C 185.247 230.687,185.323 230.803,185.613 230.623 C 185.917 230.435,185.990 230.616,185.840 231.189 C 185.698 231.735,185.768 231.941,186.040 231.772 C 186.309 231.606,186.368 231.755,186.204 232.183 C 186.062 232.551,186.102 232.757,186.292 232.640 C 186.708 232.382,187.202 233.518,186.892 234.020 C 186.771 234.215,186.888 234.375,187.151 234.375 C 187.415 234.375,187.528 234.478,187.402 234.603 C 187.277 234.728,187.525 235.181,187.953 235.610 C 188.419 236.075,188.633 236.647,188.486 237.030 C 188.351 237.383,188.365 237.546,188.519 237.393 C 188.884 237.028,189.956 238.565,189.665 239.036 C 189.541 239.236,189.646 239.526,189.898 239.682 C 190.203 239.870,190.250 239.794,190.039 239.453 C 189.824 239.105,189.875 239.036,190.201 239.237 C 190.463 239.399,190.586 239.772,190.473 240.066 C 190.361 240.360,190.464 240.721,190.702 240.868 C 190.981 241.040,191.034 240.940,190.852 240.588 C 190.695 240.286,190.838 240.373,191.169 240.780 C 191.501 241.188,191.662 241.698,191.529 241.915 C 191.395 242.131,191.470 242.194,191.696 242.055 C 192.049 241.837,192.633 242.604,192.740 243.424 C 192.758 243.568,192.933 243.831,193.129 244.010 C 193.339 244.202,193.361 244.096,193.184 243.750 C 193.018 243.428,193.325 243.691,193.865 244.336 C 194.405 244.980,194.784 245.611,194.706 245.737 C 194.537 246.010,197.609 249.075,197.884 248.908 C 197.989 248.845,198.639 249.258,199.330 249.827 C 200.021 250.395,200.339 250.728,200.037 250.565 C 199.671 250.368,199.583 250.422,199.771 250.727 C 199.927 250.979,200.208 251.090,200.395 250.974 C 200.583 250.858,201.399 251.425,202.208 252.234 C 203.017 253.043,203.536 253.473,203.361 253.191 C 203.100 252.769,203.187 252.766,203.840 253.174 C 204.278 253.448,204.533 253.840,204.407 254.045 C 204.280 254.250,204.379 254.292,204.626 254.139 C 205.182 253.796,206.747 254.829,206.345 255.273 C 206.185 255.450,206.301 255.451,206.602 255.276 C 206.944 255.078,207.311 255.179,207.579 255.545 C 207.815 255.868,208.096 256.133,208.203 256.134 C 208.883 256.139,210.156 256.757,210.156 257.081 C 210.156 257.294,210.332 257.359,210.547 257.227 C 210.762 257.094,210.938 257.182,210.938 257.422 C 210.938 257.662,211.097 257.760,211.293 257.639 C 211.825 257.310,212.923 257.835,212.644 258.286 C 212.492 258.532,212.729 258.574,213.281 258.398 C 213.875 258.210,214.075 258.258,213.896 258.547 C 213.730 258.816,213.858 258.889,214.238 258.743 C 214.571 258.615,214.844 258.699,214.844 258.930 C 214.844 259.161,215.107 259.249,215.430 259.126 C 215.752 259.002,216.016 259.090,216.016 259.321 C 216.016 259.552,216.279 259.640,216.602 259.516 C 216.924 259.393,217.188 259.470,217.188 259.687 C 217.188 259.905,217.567 259.984,218.030 259.863 C 218.621 259.708,218.786 259.782,218.583 260.110 C 218.372 260.452,218.583 260.506,219.361 260.310 C 220.109 260.123,220.347 260.175,220.156 260.484 C 219.964 260.795,220.253 260.852,221.135 260.675 C 221.910 260.520,222.297 260.570,222.152 260.806 C 222.010 261.035,222.398 261.116,223.123 261.010 C 223.856 260.902,224.236 260.984,224.092 261.217 C 223.944 261.457,224.621 261.549,225.892 261.461 C 227.023 261.383,227.632 261.453,227.261 261.618 C 226.893 261.781,228.853 261.914,231.618 261.914 C 234.393 261.914,236.442 261.769,236.193 261.589 C 235.944 261.410,236.666 261.358,237.806 261.475 C 239.266 261.623,239.790 261.558,239.600 261.250 C 239.413 260.948,239.712 260.892,240.584 261.066 C 241.472 261.244,241.756 261.187,241.560 260.871 C 241.365 260.554,241.649 260.498,242.537 260.675 C 243.418 260.852,243.708 260.795,243.516 260.484 C 243.330 260.183,243.569 260.105,244.266 260.238 C 244.900 260.360,245.196 260.283,245.044 260.038 C 244.894 259.796,245.126 259.728,245.642 259.863 C 246.105 259.984,246.484 259.912,246.484 259.703 C 246.484 259.493,246.856 259.440,247.315 259.586 C 247.930 259.781,248.065 259.720,247.836 259.350 C 247.617 258.996,247.716 258.924,248.178 259.101 C 248.536 259.238,248.828 259.162,248.828 258.930 C 248.828 258.699,249.101 258.615,249.434 258.743 C 249.827 258.894,249.943 258.818,249.764 258.528 C 249.576 258.223,249.757 258.151,250.330 258.300 C 250.794 258.422,251.086 258.380,250.979 258.208 C 250.736 257.815,251.899 257.342,252.379 257.639 C 252.574 257.760,252.734 257.699,252.734 257.504 C 252.734 257.101,255.866 255.608,256.369 255.771 C 256.550 255.830,256.569 255.669,256.410 255.412 C 256.207 255.083,256.339 255.029,256.858 255.228 C 257.262 255.383,257.468 255.385,257.315 255.231 C 256.908 254.825,258.514 253.811,259.045 254.139 C 259.293 254.292,259.392 254.250,259.265 254.045 C 259.139 253.840,259.393 253.448,259.832 253.174 C 260.485 252.766,260.572 252.769,260.311 253.191 C 260.136 253.473,260.655 253.043,261.464 252.234 C 262.273 251.425,263.089 250.858,263.277 250.974 C 263.464 251.090,263.745 250.979,263.901 250.727 C 264.088 250.424,263.998 250.366,263.635 250.555 C 263.333 250.711,263.562 250.465,264.145 250.008 C 264.727 249.550,265.317 249.204,265.455 249.239 C 265.812 249.328,269.136 246.012,268.966 245.736 C 268.888 245.610,269.266 244.980,269.807 244.336 C 270.347 243.691,270.655 243.411,270.490 243.713 C 270.291 244.080,270.343 244.168,270.649 243.979 C 270.901 243.823,271.029 243.571,270.935 243.419 C 270.841 243.267,271.117 242.708,271.549 242.177 C 271.980 241.645,272.202 241.475,272.042 241.797 C 271.873 242.136,271.897 242.248,272.100 242.062 C 272.293 241.886,272.453 241.447,272.456 241.086 C 272.459 240.725,272.694 240.478,272.978 240.537 C 273.263 240.596,273.388 240.471,273.257 240.258 C 273.126 240.046,273.376 239.514,273.814 239.077 C 274.251 238.639,274.609 238.193,274.609 238.086 C 274.609 237.979,274.609 237.704,274.609 237.477 C 274.609 237.249,274.783 237.171,274.996 237.302 C 275.213 237.436,275.285 237.288,275.161 236.965 C 275.039 236.648,275.290 236.038,275.718 235.610 C 276.147 235.181,276.395 234.728,276.270 234.603 C 276.144 234.478,276.257 234.375,276.520 234.375 C 276.784 234.375,276.891 234.199,276.758 233.984 C 276.625 233.770,276.713 233.594,276.953 233.594 C 277.193 233.594,277.291 233.434,277.170 233.238 C 276.860 232.737,277.354 231.601,277.771 231.858 C 277.961 231.976,278.011 231.799,277.883 231.466 C 277.755 231.132,277.840 230.859,278.071 230.859 C 278.302 230.859,278.379 230.567,278.242 230.209 C 278.064 229.747,278.136 229.648,278.491 229.868 C 278.865 230.099,278.920 229.956,278.711 229.297 C 278.534 228.739,278.577 228.507,278.828 228.663 C 279.071 228.813,279.139 228.581,279.004 228.064 C 278.849 227.473,278.922 227.308,279.251 227.511 C 279.592 227.722,279.646 227.511,279.451 226.732 C 279.274 226.026,279.322 225.751,279.594 225.919 C 279.851 226.077,279.928 225.879,279.801 225.391 C 279.688 224.961,279.768 224.609,279.978 224.609 C 280.189 224.609,280.271 224.144,280.163 223.575 C 280.028 222.868,280.105 222.627,280.406 222.813 C 280.717 223.005,280.774 222.715,280.597 221.834 C 280.437 221.035,280.489 220.670,280.740 220.825 C 280.990 220.979,281.082 220.330,280.993 219.030 C 280.915 217.898,280.984 217.290,281.149 217.661 C 281.312 218.029,281.445 215.805,281.445 212.718 C 281.445 209.629,281.299 207.309,281.120 207.557 C 280.941 207.806,280.896 207.132,281.020 206.055 C 281.187 204.604,281.137 204.252,280.824 204.688 C 280.506 205.132,280.454 204.917,280.609 203.800 C 280.748 202.796,280.678 202.410,280.389 202.589 C 280.100 202.767,280.050 202.508,280.232 201.783 C 280.426 201.010,280.372 200.795,280.037 201.002 C 279.710 201.204,279.632 200.988,279.770 200.265 C 279.891 199.632,279.815 199.335,279.570 199.487 C 279.327 199.637,279.259 199.405,279.394 198.889 C 279.535 198.349,279.465 198.138,279.199 198.303 C 278.933 198.467,278.862 198.257,279.004 197.717 C 279.145 197.177,279.075 196.966,278.808 197.131 C 278.542 197.295,278.472 197.085,278.613 196.545 C 278.754 196.005,278.684 195.794,278.418 195.959 C 278.151 196.124,278.081 195.913,278.222 195.373 C 278.365 194.828,278.294 194.622,278.022 194.790 C 277.756 194.955,277.693 194.811,277.851 194.400 C 277.988 194.042,277.912 193.750,277.680 193.750 C 277.449 193.750,277.365 193.477,277.493 193.144 C 277.645 192.748,277.569 192.635,277.273 192.817 C 276.968 193.006,276.904 192.878,277.078 192.427 C 277.251 191.975,277.187 191.847,276.882 192.036 C 276.577 192.224,276.514 192.097,276.687 191.645 C 276.860 191.194,276.797 191.066,276.492 191.255 C 276.187 191.443,276.123 191.316,276.296 190.864 C 276.470 190.412,276.406 190.285,276.101 190.473 C 275.796 190.662,275.732 190.535,275.906 190.083 C 276.079 189.631,276.015 189.504,275.710 189.692 C 275.405 189.881,275.342 189.753,275.515 189.302 C 275.668 188.903,275.616 188.728,275.386 188.870 C 275.174 189.001,275.000 188.922,275.000 188.695 C 275.000 188.467,275.000 188.193,275.000 188.086 C 275.000 187.979,274.642 187.533,274.205 187.095 C 273.767 186.658,273.530 186.103,273.679 185.863 C 273.843 185.597,273.772 185.535,273.498 185.705 C 273.088 185.958,272.866 185.471,273.010 184.639 C 273.041 184.462,272.886 184.428,272.666 184.564 C 272.300 184.791,272.090 184.265,272.229 183.467 C 272.260 183.290,272.114 183.251,271.904 183.380 C 271.545 183.602,270.787 182.610,270.774 181.901 C 270.771 181.722,270.638 181.458,270.478 181.315 C 270.318 181.172,270.326 181.318,270.497 181.641 C 270.667 181.963,270.274 181.611,269.623 180.859 C 268.972 180.107,268.502 179.389,268.578 179.263 C 268.655 179.136,268.022 178.354,267.171 177.523 C 266.321 176.693,265.625 176.150,265.625 176.316 C 265.625 176.483,265.142 176.239,264.551 175.774 C 263.960 175.309,263.477 174.725,263.477 174.476 C 263.477 174.227,263.301 174.008,263.086 173.990 C 262.191 173.912,261.350 173.327,261.586 172.946 C 261.725 172.720,261.662 172.645,261.446 172.779 C 261.230 172.912,260.719 172.751,260.311 172.419 C 259.904 172.088,259.817 171.945,260.119 172.102 C 260.483 172.290,260.572 172.232,260.385 171.929 C 260.229 171.677,259.939 171.573,259.739 171.696 C 259.258 171.993,257.734 170.911,258.108 170.538 C 258.268 170.378,258.223 170.283,258.008 170.326 C 257.182 170.493,256.605 170.296,256.833 169.926 C 256.970 169.705,256.814 169.639,256.469 169.772 C 256.114 169.908,255.767 169.746,255.626 169.379 C 255.495 169.035,255.230 168.852,255.037 168.971 C 254.845 169.089,254.688 168.990,254.688 168.750 C 254.688 168.510,254.512 168.422,254.297 168.555 C 254.082 168.687,253.906 168.600,253.906 168.359 C 253.906 168.119,253.730 168.031,253.516 168.164 C 253.301 168.297,253.125 168.209,253.125 167.969 C 253.125 167.729,252.965 167.631,252.770 167.752 C 252.295 168.045,251.126 167.578,251.365 167.191 C 251.469 167.023,251.336 166.893,251.070 166.903 C 249.846 166.947,249.191 166.767,249.392 166.443 C 249.512 166.248,249.231 166.188,248.768 166.309 C 248.194 166.459,248.013 166.386,248.201 166.082 C 248.381 165.791,248.265 165.716,247.872 165.867 C 247.538 165.995,247.266 165.921,247.266 165.703 C 247.266 165.486,246.887 165.407,246.423 165.528 C 245.884 165.669,245.673 165.599,245.838 165.332 C 246.003 165.066,245.792 164.996,245.252 165.137 C 244.680 165.287,244.498 165.214,244.685 164.911 C 244.881 164.594,244.598 164.538,243.709 164.715 C 242.906 164.876,242.544 164.824,242.701 164.571 C 242.852 164.326,242.555 164.250,241.922 164.371 C 241.284 164.493,240.992 164.416,241.146 164.168 C 241.305 163.911,240.735 163.823,239.544 163.921 C 238.500 164.006,237.986 163.943,238.364 163.774 C 238.732 163.611,235.893 163.477,232.054 163.477 C 228.215 163.477,225.278 163.622,225.526 163.801 M184.375 165.820 C 183.426 166.787,182.738 167.578,182.845 167.578 C 182.953 167.578,183.817 166.787,184.766 165.820 C 185.714 164.854,186.403 164.063,186.295 164.063 C 186.188 164.063,185.324 164.854,184.375 165.820 M198.047 176.679 C 198.047 176.742,197.300 177.489,196.387 178.339 L 194.727 179.883 196.271 178.223 C 197.707 176.679,198.047 176.383,198.047 176.679 M267.188 177.930 C 267.916 178.682,268.425 179.297,268.317 179.297 C 268.210 179.297,267.526 178.682,266.797 177.930 C 266.068 177.178,265.560 176.563,265.667 176.563 C 265.774 176.563,266.459 177.178,267.188 177.930 M241.406 183.594 C 241.406 183.809,241.538 183.944,241.699 183.895 C 242.072 183.782,269.727 211.663,269.727 212.152 C 269.727 212.353,263.311 218.929,255.469 226.765 L 241.211 241.014 230.804 241.015 C 222.435 241.015,220.357 240.912,220.194 240.489 C 219.970 239.905,238.328 221.318,238.791 221.662 C 238.944 221.775,238.930 221.697,238.760 221.488 C 238.580 221.266,234.470 221.059,228.894 220.990 L 219.336 220.872 229.590 220.885 C 235.230 220.893,239.844 220.767,239.844 220.605 C 239.844 220.444,229.303 220.313,216.419 220.313 L 192.995 220.313 192.884 216.309 C 192.823 214.106,192.828 210.239,192.895 207.715 L 193.016 203.125 216.134 203.125 L 239.252 203.125 229.732 193.599 C 224.147 188.010,220.323 183.893,220.480 183.638 C 220.835 183.064,241.406 183.021,241.406 183.594 M207.743 203.808 C 213.827 203.869,223.671 203.869,229.618 203.808 C 235.564 203.748,230.586 203.698,218.555 203.698 C 206.523 203.698,201.658 203.748,207.743 203.808 M265.430 208.203 C 267.570 210.352,269.409 212.109,269.517 212.109 C 269.624 212.109,267.961 210.352,265.820 208.203 C 263.680 206.055,261.841 204.297,261.733 204.297 C 261.626 204.297,263.289 206.055,265.430 208.203 M212.402 220.995 C 208.804 221.060,202.915 221.060,199.316 220.995 C 195.718 220.931,198.662 220.878,205.859 220.878 C 213.057 220.878,216.001 220.931,212.402 220.995 M228.895 231.543 L 226.367 234.180 229.004 231.652 C 231.453 229.304,231.819 228.906,231.532 228.906 C 231.472 228.906,230.285 230.093,228.895 231.543 M223.047 237.305 C 221.446 238.916,220.225 240.234,220.332 240.234 C 220.439 240.234,221.837 238.916,223.438 237.305 C 225.038 235.693,226.260 234.375,226.152 234.375 C 226.045 234.375,224.647 235.693,223.047 237.305 M196.484 247.070 C 197.213 247.822,197.722 248.438,197.614 248.438 C 197.507 248.438,196.823 247.822,196.094 247.070 C 195.365 246.318,194.857 245.703,194.964 245.703 C 195.071 245.703,195.756 246.318,196.484 247.070 M268.750 245.819 C 268.750 245.883,268.003 246.630,267.090 247.479 L 265.430 249.023 266.974 247.363 C 268.410 245.819,268.750 245.524,268.750 245.819 M183.984 259.180 C 184.713 259.932,185.397 260.547,185.505 260.547 C 185.612 260.547,185.104 259.932,184.375 259.180 C 183.646 258.428,182.962 257.813,182.855 257.813 C 182.747 257.813,183.256 258.428,183.984 259.180 M309.180 283.594 C 313.903 288.320,317.855 292.188,317.962 292.188 C 318.070 292.188,314.293 288.320,309.570 283.594 C 304.847 278.867,300.895 275.000,300.788 275.000 C 300.680 275.000,304.457 278.867,309.180 283.594 M285.938 287.998 C 285.938 288.057,287.300 289.419,288.965 291.025 L 291.992 293.945 289.072 290.918 C 286.360 288.106,285.938 287.712,285.938 287.998 M283.203 297.852 C 285.882 300.537,288.162 302.734,288.270 302.734 C 288.377 302.734,286.273 300.537,283.594 297.852 C 280.915 295.166,278.635 292.969,278.527 292.969 C 278.420 292.969,280.524 295.166,283.203 297.852 M299.023 301.172 C 302.886 305.039,306.134 308.203,306.242 308.203 C 306.349 308.203,303.277 305.039,299.414 301.172 C 295.551 297.305,292.303 294.141,292.196 294.141 C 292.088 294.141,295.161 297.305,299.023 301.172 M226.074 309.277 C 197.554 309.333,150.884 309.333,122.363 309.277 C 93.843 309.222,117.178 309.177,174.219 309.177 C 231.260 309.177,254.595 309.222,226.074 309.277 " stroke="none" fill="#313030" fill-rule="evenodd"></path><path id="path1" d="M62.195 85.988 C 57.822 87.672,53.954 92.585,53.196 97.421 C 52.351 102.806,52.935 292.563,53.805 295.214 C 55.848 301.445,61.082 306.350,67.458 308.011 C 70.642 308.840,277.175 308.890,280.273 308.063 C 282.855 307.373,285.004 306.238,286.914 304.555 L 288.477 303.178 283.404 298.073 L 278.332 292.969 175.787 292.960 C 60.774 292.951,71.271 293.224,69.102 290.182 L 68.164 288.867 68.064 211.035 L 67.963 133.203 179.489 133.203 L 291.016 133.203 291.016 149.260 L 291.016 165.317 292.136 166.741 C 296.796 172.658,301.634 181.732,304.143 189.258 L 305.836 194.336 305.750 145.313 L 305.664 96.289 304.758 94.044 C 303.561 91.081,300.556 87.831,297.731 86.443 L 295.508 85.352 179.883 85.273 C 64.478 85.194,64.254 85.196,62.195 85.988 M88.307 101.954 C 90.094 102.450,92.792 104.759,93.717 106.585 C 97.606 114.261,89.644 122.250,81.762 118.580 C 71.892 113.984,77.779 99.029,88.307 101.954 M118.094 101.981 C 119.896 102.482,122.453 104.706,123.418 106.614 C 128.609 116.872,113.682 124.853,107.626 115.058 C 103.367 108.168,110.097 99.761,118.094 101.981 M148.723 102.485 C 154.131 105.281,155.546 112.156,151.613 116.518 C 146.093 122.641,135.980 118.841,135.946 110.632 C 135.919 104.099,143.051 99.552,148.723 102.485 M226.367 146.533 C 183.828 149.762,155.629 192.848,169.128 233.990 C 181.597 271.995,226.091 289.776,262.605 271.347 L 267.383 268.936 289.168 290.882 C 305.516 307.351,311.415 313.055,312.801 313.737 C 319.378 316.969,327.273 311.650,326.470 304.527 C 326.040 300.712,325.504 300.091,303.232 277.603 L 282.017 256.183 283.927 253.775 C 301.591 231.503,302.914 199.560,287.143 176.103 C 273.606 155.968,250.456 144.705,226.367 146.533 M242.578 164.011 C 281.601 173.010,295.238 221.439,266.391 248.576 C 237.973 275.310,190.874 260.695,182.770 222.630 C 175.396 187.991,207.998 156.038,242.578 164.011 M230.664 193.750 L 240.815 203.906 216.892 203.906 L 192.969 203.906 192.969 212.109 L 192.969 220.313 216.696 220.313 L 240.424 220.313 230.273 230.469 L 220.123 240.625 230.465 240.625 L 240.806 240.625 255.071 226.393 L 269.336 212.162 255.173 197.878 L 241.011 183.594 230.762 183.594 L 220.513 183.594 230.664 193.750 " stroke="none" fill="#00ffff" fill-rule="evenodd"></path><path id="path2" d="M63.477 84.921 C 59.312 86.238,53.498 91.495,53.519 93.924 C 53.521 94.151,54.029 93.453,54.648 92.375 C 56.115 89.817,58.882 87.298,61.650 86.000 L 63.867 84.961 178.906 84.764 L 293.945 84.566 179.492 84.497 C 88.134 84.441,64.724 84.527,63.477 84.921 M295.597 85.334 C 296.505 85.618,297.878 86.221,298.647 86.676 C 299.417 87.130,299.927 87.307,299.780 87.070 C 299.400 86.454,295.656 84.769,294.727 84.796 C 294.297 84.808,294.688 85.050,295.597 85.334 M301.642 88.868 C 302.438 89.727,303.621 91.396,304.272 92.578 C 304.922 93.760,305.456 94.551,305.458 94.336 C 305.465 93.497,303.123 89.969,301.698 88.672 L 300.195 87.306 301.642 88.868 M306.049 145.313 C 306.049 172.275,306.095 183.306,306.152 169.824 C 306.209 156.343,306.209 134.282,306.152 120.801 C 306.095 107.319,306.049 118.350,306.049 145.313 M52.536 194.922 C 52.536 248.740,52.581 270.757,52.637 243.848 C 52.692 216.938,52.692 172.905,52.637 145.996 C 52.581 119.087,52.536 141.104,52.536 194.922 M84.675 102.236 C 85.377 102.323,86.432 102.321,87.019 102.232 C 87.606 102.143,87.031 102.072,85.742 102.074 C 84.453 102.076,83.973 102.149,84.675 102.236 M115.625 102.331 C 119.453 102.733,121.881 104.364,123.205 107.422 C 123.531 108.174,123.804 108.516,123.813 108.182 C 123.884 105.360,119.102 101.910,115.255 102.009 L 113.086 102.064 115.625 102.331 M141.406 102.576 C 139.282 103.496,136.668 106.361,136.734 107.695 C 136.743 107.867,137.028 107.480,137.368 106.836 C 138.895 103.939,140.834 102.720,144.531 102.331 L 147.070 102.064 144.922 102.024 C 143.740 102.002,142.158 102.250,141.406 102.576 M89.258 102.993 C 90.824 103.819,92.135 105.022,93.019 106.445 C 93.420 107.090,93.748 107.398,93.749 107.130 C 93.752 105.990,89.613 102.299,88.398 102.359 C 88.227 102.368,88.613 102.653,89.258 102.993 M80.173 103.745 C 79.474 104.297,78.711 105.130,78.479 105.597 C 78.168 106.219,78.299 106.156,78.969 105.359 C 79.472 104.762,80.410 103.928,81.055 103.506 C 81.699 103.085,82.051 102.740,81.836 102.741 C 81.621 102.742,80.873 103.194,80.173 103.745 M149.414 103.506 C 150.059 103.928,150.997 104.762,151.500 105.359 C 152.194 106.185,152.310 106.239,151.983 105.582 C 151.534 104.684,149.212 102.732,148.596 102.737 C 148.401 102.738,148.770 103.085,149.414 103.506 M109.621 103.937 C 109.053 104.383,108.402 105.130,108.174 105.597 L 107.760 106.445 108.470 105.595 C 108.860 105.127,109.619 104.386,110.156 103.948 C 111.443 102.898,110.953 102.888,109.621 103.937 M77.382 107.871 C 77.146 108.547,76.977 109.910,77.007 110.898 C 77.059 112.649,77.067 112.635,77.349 110.352 C 77.508 109.063,77.766 107.700,77.923 107.324 C 78.080 106.948,78.119 106.641,78.010 106.641 C 77.900 106.641,77.618 107.194,77.382 107.871 M152.996 108.789 C 153.292 110.720,153.518 111.049,153.510 109.538 C 153.506 108.911,153.336 108.135,153.130 107.813 C 152.876 107.413,152.833 107.725,152.996 108.789 M94.031 109.766 C 94.152 110.947,94.313 111.987,94.391 112.077 C 94.681 112.413,94.462 109.147,94.144 108.398 C 93.938 107.912,93.895 108.429,94.031 109.766 M106.786 111.027 C 106.899 114.489,109.945 118.778,112.265 118.744 C 112.502 118.740,111.999 118.343,111.149 117.861 C 108.754 116.505,107.347 114.197,106.996 111.047 L 106.700 108.398 106.786 111.027 M123.780 110.938 C 123.648 112.119,123.426 113.437,123.287 113.867 C 123.149 114.297,123.311 114.056,123.647 113.332 C 123.986 112.603,124.206 111.296,124.140 110.403 C 124.025 108.835,124.015 108.850,123.780 110.938 M136.334 112.337 C 136.337 112.749,136.519 113.350,136.737 113.672 C 137.026 114.100,137.062 113.942,136.871 113.086 C 136.550 111.650,136.326 111.338,136.334 112.337 M93.017 114.558 C 92.364 115.916,91.562 116.820,90.304 117.618 C 89.322 118.241,88.703 118.750,88.927 118.750 C 90.414 118.750,94.535 114.080,94.066 112.927 C 94.000 112.764,93.528 113.498,93.017 114.558 M77.734 114.228 C 77.734 115.353,81.408 118.752,82.617 118.745 C 82.832 118.744,82.260 118.294,81.346 117.747 C 80.432 117.199,79.246 116.105,78.709 115.316 C 78.173 114.527,77.734 114.037,77.734 114.228 M137.419 115.039 C 137.641 115.469,138.410 116.347,139.127 116.991 L 140.430 118.162 139.064 116.601 C 138.312 115.742,137.544 114.863,137.356 114.648 C 137.168 114.434,137.196 114.609,137.419 115.039 M151.626 115.622 C 150.602 117.007,149.357 117.872,147.360 118.585 C 146.556 118.872,146.215 119.114,146.601 119.123 C 148.097 119.160,151.468 116.838,152.391 115.137 C 152.961 114.086,152.586 114.324,151.626 115.622 M122.252 115.651 C 122.014 116.095,121.007 116.974,120.013 117.604 C 119.019 118.234,118.390 118.750,118.615 118.750 C 119.273 118.750,122.187 116.502,122.650 115.637 C 122.883 115.201,122.986 114.844,122.879 114.844 C 122.772 114.844,122.489 115.207,122.252 115.651 M141.797 118.732 C 142.119 118.950,142.720 119.131,143.132 119.135 C 144.131 119.143,143.819 118.919,142.383 118.598 C 141.527 118.406,141.369 118.443,141.797 118.732 M67.971 209.798 C 67.972 264.288,68.097 286.971,68.402 288.068 C 68.846 289.666,71.009 292.189,71.934 292.186 C 72.224 292.185,71.898 291.841,71.210 291.422 C 68.312 289.655,68.566 297.091,68.457 210.775 C 68.403 168.254,68.272 133.376,68.164 133.268 C 68.057 133.161,67.970 167.599,67.971 209.798 M290.412 149.805 C 290.412 158.398,290.464 161.858,290.527 157.494 C 290.590 153.129,290.590 146.097,290.527 141.869 C 290.464 137.640,290.412 141.211,290.412 149.805 M229.004 145.993 C 230.669 146.067,233.394 146.067,235.059 145.993 C 236.724 145.920,235.361 145.860,232.031 145.860 C 228.701 145.860,227.339 145.920,229.004 145.993 M223.535 146.363 C 223.911 146.461,224.526 146.461,224.902 146.363 C 225.278 146.265,224.971 146.184,224.219 146.184 C 223.467 146.184,223.159 146.265,223.535 146.363 M238.969 146.370 C 239.455 146.463,240.158 146.460,240.532 146.362 C 240.905 146.264,240.508 146.188,239.648 146.192 C 238.789 146.197,238.483 146.277,238.969 146.370 M247.461 147.879 C 248.535 148.178,249.590 148.407,249.805 148.389 C 250.466 148.332,247.121 147.325,246.289 147.331 C 245.859 147.333,246.387 147.580,247.461 147.879 M211.975 148.679 C 210.289 149.222,208.976 149.732,209.057 149.812 C 209.138 149.893,210.781 149.454,212.707 148.836 C 214.634 148.218,215.947 147.708,215.625 147.703 C 215.303 147.697,213.660 148.137,211.975 148.679 M203.223 152.133 C 201.235 153.083,199.609 153.947,199.609 154.054 C 199.609 154.223,206.966 150.891,207.389 150.529 C 208.002 150.007,206.309 150.658,203.223 152.133 M261.523 153.240 C 272.448 158.923,281.232 166.720,287.691 176.465 C 288.723 178.022,289.640 179.297,289.729 179.297 C 290.768 179.297,283.997 170.693,279.113 165.806 C 272.570 159.260,260.035 150.695,257.136 150.791 C 256.971 150.797,258.945 151.898,261.523 153.240 M197.363 155.299 C 196.450 155.847,195.703 156.387,195.703 156.499 C 195.703 156.710,198.338 155.213,199.004 154.625 C 199.675 154.031,199.050 154.288,197.363 155.299 M191.895 159.009 C 190.767 159.874,189.844 160.668,189.844 160.773 C 189.844 160.877,190.811 160.233,191.992 159.341 C 193.858 157.932,194.425 157.403,194.043 157.428 C 193.989 157.432,193.022 158.143,191.895 159.009 M184.676 165.333 C 180.367 169.635,176.287 174.909,174.100 179.004 C 172.875 181.299,173.168 180.915,175.933 176.608 C 178.990 171.846,181.149 169.211,185.496 164.941 C 187.737 162.739,189.460 160.938,189.325 160.938 C 189.190 160.938,187.098 162.915,184.676 165.333 M226.563 163.498 C 226.885 163.567,230.225 163.688,233.984 163.767 C 237.744 163.845,240.029 163.781,239.063 163.624 C 237.397 163.354,225.325 163.232,226.563 163.498 M222.461 164.063 C 220.836 164.476,222.435 164.494,224.414 164.085 C 225.728 163.813,225.790 163.762,224.805 163.763 C 224.160 163.764,223.105 163.898,222.461 164.063 M241.797 164.453 C 242.334 164.625,243.125 164.766,243.555 164.766 C 244.173 164.766,244.133 164.701,243.359 164.453 C 242.822 164.281,242.031 164.140,241.602 164.140 C 240.983 164.140,241.024 164.205,241.797 164.453 M245.117 165.234 C 245.547 165.419,246.162 165.570,246.484 165.570 C 246.854 165.570,246.781 165.446,246.289 165.234 C 245.859 165.050,245.244 164.899,244.922 164.899 C 244.553 164.899,244.625 165.023,245.117 165.234 M215.820 165.806 C 214.312 166.497,215.013 166.507,216.797 165.820 C 217.549 165.531,217.900 165.288,217.578 165.282 C 217.256 165.275,216.465 165.511,215.820 165.806 M247.266 165.725 C 247.581 166.043,252.489 167.954,252.630 167.813 C 252.700 167.742,251.918 167.329,250.891 166.895 C 248.822 166.020,246.964 165.420,247.266 165.725 M293.567 169.759 C 296.441 173.865,297.361 175.069,296.677 173.828 C 295.877 172.376,291.692 166.415,291.167 165.979 C 290.846 165.712,291.926 167.413,293.567 169.759 M211.523 167.549 C 208.451 169.045,208.944 169.081,212.154 167.596 C 213.526 166.961,214.473 166.435,214.258 166.425 C 214.043 166.416,212.812 166.922,211.523 167.549 M207.715 169.364 C 206.255 170.156,206.343 170.486,207.813 169.727 C 208.457 169.393,208.984 169.037,208.984 168.935 C 208.984 168.684,208.942 168.698,207.715 169.364 M255.469 169.248 C 255.576 169.366,257.246 170.501,259.180 171.771 C 263.730 174.759,268.737 179.524,271.652 183.642 C 274.229 187.281,275.178 188.409,273.912 186.328 C 270.856 181.306,265.156 175.376,260.145 172.006 C 257.424 170.175,255.021 168.758,255.469 169.248 M202.873 172.495 C 196.304 177.167,186.290 189.203,186.334 192.373 C 186.337 192.593,187.057 191.455,187.934 189.844 C 191.467 183.353,196.834 177.205,202.421 173.250 C 206.008 170.709,206.515 170.313,206.174 170.313 C 206.046 170.313,204.561 171.295,202.873 172.495 M299.530 179.731 C 300.970 182.656,302.216 184.990,302.299 184.919 C 302.495 184.751,298.291 176.214,297.510 175.195 C 297.180 174.766,298.089 176.807,299.530 179.731 M291.489 182.993 C 292.391 184.811,293.191 186.236,293.269 186.159 C 293.442 185.985,290.298 179.688,290.038 179.688 C 289.934 179.688,290.587 181.175,291.489 182.993 M225.902 183.495 C 228.869 183.562,233.615 183.562,236.449 183.495 C 239.283 183.428,236.855 183.374,231.055 183.374 C 225.254 183.374,222.935 183.429,225.902 183.495 M241.797 183.902 C 241.797 184.052,248.080 190.461,255.760 198.143 L 269.723 212.109 255.475 226.361 L 241.227 240.613 230.672 240.723 L 220.117 240.833 230.664 240.923 L 241.211 241.014 255.469 226.765 C 263.311 218.929,269.727 212.354,269.727 212.155 C 269.727 211.957,263.442 205.457,255.762 197.711 C 248.081 189.965,241.797 183.751,241.797 183.902 M229.684 193.552 L 239.246 203.119 216.010 203.223 L 192.773 203.327 216.403 203.421 L 240.033 203.516 230.273 193.750 C 224.906 188.379,220.426 183.984,220.318 183.984 C 220.211 183.984,224.426 188.290,229.684 193.552 M170.366 186.291 C 169.214 188.968,169.355 189.355,170.535 186.756 C 171.062 185.595,171.428 184.579,171.347 184.498 C 171.266 184.417,170.825 185.224,170.366 186.291 M302.568 186.328 C 302.711 186.865,302.992 187.568,303.191 187.891 C 303.443 188.298,303.473 188.179,303.292 187.500 C 303.148 186.963,302.868 186.260,302.668 185.938 C 302.417 185.530,302.386 185.649,302.568 186.328 M276.059 190.807 C 276.852 192.410,277.565 193.659,277.643 193.581 C 277.817 193.407,275.064 187.891,274.803 187.891 C 274.700 187.891,275.265 189.203,276.059 190.807 M294.280 189.253 C 294.403 189.572,294.966 191.374,295.532 193.257 C 296.098 195.139,296.618 196.855,296.687 197.070 C 296.757 197.285,296.827 197.155,296.844 196.782 C 296.882 195.945,294.579 188.672,294.276 188.672 C 294.155 188.672,294.157 188.933,294.280 189.253 M303.714 189.453 C 304.164 191.541,304.922 194.114,305.155 194.347 C 305.510 194.703,304.823 191.864,304.112 190.039 C 303.778 189.180,303.599 188.916,303.714 189.453 M168.599 190.869 C 168.252 191.885,167.982 192.906,167.997 193.136 C 168.013 193.366,168.364 192.602,168.777 191.438 C 169.191 190.273,169.461 189.253,169.379 189.170 C 169.296 189.088,168.945 189.852,168.599 190.869 M185.206 195.074 C 184.761 196.262,184.300 197.724,184.179 198.324 C 184.059 198.924,184.482 198.011,185.119 196.297 C 185.757 194.582,186.219 193.120,186.146 193.047 C 186.073 192.974,185.650 193.887,185.206 195.074 M167.411 194.754 C 167.267 195.327,167.225 195.871,167.317 195.963 C 167.409 196.055,167.602 195.662,167.746 195.089 C 167.889 194.517,167.931 193.973,167.839 193.881 C 167.747 193.789,167.554 194.182,167.411 194.754 M277.739 194.173 C 277.756 194.748,280.051 201.246,280.063 200.752 C 280.079 200.103,278.268 194.544,277.931 194.207 C 277.823 194.099,277.736 194.084,277.739 194.173 M297.131 199.023 C 297.262 199.883,297.434 200.659,297.513 200.749 C 297.809 201.084,297.587 198.992,297.247 198.242 C 297.001 197.698,296.966 197.934,297.131 199.023 M183.398 200.781 C 183.250 201.457,183.210 202.090,183.310 202.190 C 183.409 202.289,183.603 201.809,183.740 201.123 C 184.066 199.495,183.750 199.179,183.398 200.781 M166.106 201.172 C 166.106 201.924,166.187 202.231,166.285 201.855 C 166.383 201.479,166.383 200.864,166.285 200.488 C 166.187 200.112,166.106 200.420,166.106 201.172 M297.747 202.344 C 297.747 203.096,297.827 203.403,297.926 203.027 C 298.024 202.651,298.024 202.036,297.926 201.660 C 297.827 201.284,297.747 201.592,297.747 202.344 M165.724 204.102 C 165.728 204.961,165.808 205.267,165.901 204.781 C 165.995 204.295,165.991 203.592,165.893 203.218 C 165.796 202.845,165.719 203.242,165.724 204.102 M298.153 205.469 C 298.153 206.436,298.229 206.831,298.323 206.348 C 298.416 205.864,298.416 205.073,298.323 204.590 C 298.229 204.106,298.153 204.502,298.153 205.469 M182.513 205.859 C 182.513 206.611,182.593 206.919,182.691 206.543 C 182.789 206.167,182.789 205.552,182.691 205.176 C 182.593 204.800,182.513 205.107,182.513 205.859 M280.950 206.641 C 280.950 207.393,281.030 207.700,281.129 207.324 C 281.227 206.948,281.227 206.333,281.129 205.957 C 281.030 205.581,280.950 205.889,280.950 206.641 M165.394 212.305 C 165.394 215.957,165.452 217.504,165.525 215.742 C 165.597 213.980,165.597 210.992,165.526 209.101 C 165.454 207.211,165.395 208.652,165.394 212.305 M182.182 212.500 C 182.182 215.186,182.244 216.284,182.320 214.941 C 182.397 213.599,182.397 211.401,182.320 210.059 C 182.244 208.716,182.182 209.814,182.182 212.500 M298.588 212.891 C 298.588 215.576,298.650 216.675,298.727 215.332 C 298.803 213.989,298.803 211.792,298.727 210.449 C 298.650 209.106,298.588 210.205,298.588 212.891 M281.396 212.695 C 281.397 215.059,281.461 215.975,281.539 214.732 C 281.617 213.489,281.616 211.555,281.537 210.435 C 281.459 209.315,281.395 210.332,281.396 212.695 M280.966 218.750 C 280.966 219.717,281.042 220.112,281.135 219.629 C 281.228 219.146,281.228 218.354,281.135 217.871 C 281.042 217.388,280.966 217.783,280.966 218.750 M182.513 219.141 C 182.513 219.893,182.593 220.200,182.691 219.824 C 182.789 219.448,182.789 218.833,182.691 218.457 C 182.593 218.081,182.513 218.389,182.513 219.141 M298.153 220.313 C 298.153 221.279,298.229 221.675,298.323 221.191 C 298.416 220.708,298.416 219.917,298.323 219.434 C 298.229 218.950,298.153 219.346,298.153 220.313 M165.731 221.094 C 165.731 222.061,165.808 222.456,165.901 221.973 C 165.994 221.489,165.994 220.698,165.901 220.215 C 165.808 219.731,165.731 220.127,165.731 221.094 M199.316 220.995 C 202.915 221.060,208.804 221.060,212.402 220.995 C 216.001 220.931,213.057 220.878,205.859 220.878 C 198.662 220.878,195.718 220.931,199.316 220.995 M228.896 220.996 L 238.847 221.108 229.287 230.769 L 219.727 240.430 229.590 230.667 C 235.015 225.298,239.453 220.859,239.453 220.804 C 239.453 220.748,234.839 220.744,229.199 220.794 L 218.945 220.884 228.896 220.996 M297.493 224.251 C 297.347 225.358,297.305 226.342,297.401 226.438 C 297.497 226.534,297.700 225.711,297.852 224.609 C 298.003 223.508,298.045 222.524,297.944 222.423 C 297.843 222.322,297.640 223.145,297.493 224.251 M279.520 225.614 C 279.376 226.186,279.334 226.730,279.426 226.822 C 279.518 226.914,279.711 226.521,279.855 225.949 C 279.999 225.376,280.041 224.832,279.949 224.740 C 279.857 224.648,279.664 225.041,279.520 225.614 M184.032 226.563 C 184.025 226.885,184.261 227.676,184.556 228.320 C 185.247 229.829,185.257 229.127,184.570 227.344 C 184.281 226.592,184.038 226.240,184.032 226.563 M166.863 227.930 C 166.857 228.359,167.003 229.063,167.188 229.492 C 167.615 230.488,167.615 229.461,167.188 228.125 C 166.936 227.340,166.872 227.302,166.863 227.930 M185.179 229.810 C 185.145 230.287,186.802 234.031,186.972 233.861 C 187.053 233.781,186.687 232.765,186.160 231.603 C 185.633 230.442,185.191 229.635,185.179 229.810 M295.926 231.083 C 295.783 231.655,295.740 232.199,295.833 232.291 C 295.925 232.383,296.117 231.990,296.261 231.417 C 296.405 230.845,296.447 230.301,296.355 230.209 C 296.263 230.117,296.070 230.510,295.926 231.083 M277.407 231.853 C 276.753 233.289,276.878 233.596,277.585 232.290 C 277.916 231.680,278.113 231.108,278.024 231.019 C 277.934 230.929,277.657 231.305,277.407 231.853 M168.372 233.509 C 168.356 234.135,170.731 240.337,170.916 240.152 C 170.990 240.077,170.451 238.440,169.718 236.512 C 168.985 234.585,168.379 233.233,168.372 233.509 M188.138 236.328 C 190.228 240.731,197.704 249.411,201.563 251.914 C 202.803 252.719,202.785 252.683,201.367 251.527 C 197.771 248.595,192.938 243.331,190.777 239.993 C 187.479 234.899,187.422 234.820,188.138 236.328 M275.000 236.719 C 274.562 237.578,274.291 238.281,274.398 238.281 C 274.506 238.281,274.952 237.578,275.391 236.719 C 275.829 235.859,276.100 235.156,275.992 235.156 C 275.885 235.156,275.438 235.859,275.000 236.719 M271.732 241.758 C 269.593 244.683,265.754 248.653,262.305 251.508 C 260.901 252.670,260.881 252.709,262.109 251.892 C 265.209 249.829,271.206 243.500,273.618 239.746 C 274.979 237.629,273.948 238.729,271.732 241.758 M291.684 242.006 C 290.890 243.610,290.325 244.922,290.428 244.922 C 290.689 244.922,293.442 239.406,293.268 239.232 C 293.190 239.154,292.477 240.402,291.684 242.006 M171.094 240.775 C 171.094 241.194,172.256 243.359,172.481 243.359 C 172.588 243.359,172.386 242.788,172.031 242.090 C 171.306 240.664,171.094 240.367,171.094 240.775 M174.427 247.168 C 175.011 248.188,175.745 249.287,176.057 249.609 C 176.368 249.932,175.974 249.097,175.180 247.754 C 174.386 246.411,173.653 245.313,173.550 245.313 C 173.447 245.313,173.842 246.147,174.427 247.168 M287.210 249.514 C 285.654 251.822,283.916 254.285,283.347 254.986 L 282.313 256.261 300.349 274.360 C 310.269 284.314,318.335 292.325,318.274 292.161 C 318.214 291.997,310.195 283.840,300.455 274.034 L 282.747 256.206 283.746 254.958 C 285.968 252.185,290.536 245.307,290.150 245.315 C 290.089 245.316,288.766 247.206,287.210 249.514 M177.493 251.801 C 181.812 258.157,192.168 267.414,198.242 270.348 C 199.943 271.169,199.896 271.135,194.964 267.939 C 188.883 264.000,183.089 258.668,179.033 253.279 C 176.755 250.253,175.852 249.386,177.493 251.801 M203.516 253.240 C 204.214 253.916,207.813 256.015,207.813 255.747 C 207.813 255.644,206.714 254.911,205.371 254.117 C 204.028 253.323,203.193 252.929,203.516 253.240 M259.941 253.085 C 259.737 253.278,257.988 254.354,256.055 255.476 C 254.121 256.598,252.891 257.396,253.320 257.251 C 254.411 256.881,260.108 253.518,260.374 253.088 C 260.655 252.634,260.420 252.633,259.941 253.085 M250.195 258.231 C 249.336 258.644,249.072 258.873,249.609 258.740 C 250.715 258.464,252.746 257.446,252.148 257.466 C 251.934 257.474,251.055 257.818,250.195 258.231 M244.141 260.156 C 243.356 260.408,243.317 260.471,243.945 260.480 C 244.375 260.487,245.078 260.341,245.508 260.156 C 246.503 259.729,245.476 259.729,244.141 260.156 M221.484 260.938 C 222.021 261.110,222.900 261.247,223.438 261.243 C 224.315 261.236,224.295 261.205,223.242 260.938 C 221.590 260.517,220.171 260.517,221.484 260.938 M225.293 261.604 C 225.776 261.697,226.567 261.697,227.051 261.604 C 227.534 261.511,227.139 261.435,226.172 261.435 C 225.205 261.435,224.810 261.511,225.293 261.604 M236.626 261.604 C 237.112 261.698,237.815 261.694,238.188 261.597 C 238.562 261.499,238.164 261.422,237.305 261.427 C 236.445 261.431,236.140 261.511,236.626 261.604 M229.980 262.005 C 230.894 262.087,232.388 262.087,233.301 262.005 C 234.214 261.923,233.467 261.855,231.641 261.855 C 229.814 261.855,229.067 261.923,229.980 262.005 M265.918 269.948 C 265.112 270.374,264.453 270.809,264.453 270.916 C 264.453 271.022,265.122 270.768,265.940 270.351 L 267.428 269.592 288.983 291.400 C 312.940 315.637,312.520 315.282,317.167 315.175 L 319.727 315.116 316.797 314.859 C 312.308 314.464,312.539 314.663,289.258 291.210 L 267.383 269.175 265.918 269.948 M260.352 272.843 C 259.277 273.349,258.516 273.778,258.659 273.796 C 259.068 273.847,262.500 272.318,262.500 272.084 C 262.500 271.816,262.625 271.772,260.352 272.843 M203.320 272.947 C 203.885 273.472,207.856 275.087,208.066 274.877 C 208.163 274.779,207.751 274.521,207.149 274.302 C 206.547 274.083,205.352 273.607,204.492 273.244 C 203.633 272.881,203.105 272.747,203.320 272.947 M255.664 274.818 C 254.687 275.289,254.655 275.343,255.469 275.144 C 256.576 274.874,257.820 274.240,257.227 274.248 C 257.012 274.251,256.309 274.508,255.664 274.818 M250.195 276.563 C 249.703 276.774,249.631 276.898,250.000 276.898 C 250.322 276.898,250.938 276.747,251.367 276.563 C 251.860 276.351,251.932 276.227,251.563 276.227 C 251.240 276.227,250.625 276.378,250.195 276.563 M218.164 277.939 C 219.238 278.215,220.732 278.441,221.484 278.441 C 222.359 278.441,221.866 278.254,220.117 277.923 C 216.670 277.271,215.598 277.279,218.164 277.939 M223.730 278.791 C 224.214 278.884,225.005 278.884,225.488 278.791 C 225.972 278.698,225.576 278.622,224.609 278.622 C 223.643 278.622,223.247 278.698,223.730 278.791 M238.775 278.796 C 239.369 278.886,240.248 278.883,240.728 278.791 C 241.208 278.698,240.723 278.624,239.648 278.627 C 238.574 278.630,238.181 278.706,238.775 278.796 M229.377 279.196 C 230.818 279.270,233.279 279.271,234.846 279.197 C 236.413 279.122,235.234 279.061,232.227 279.060 C 229.219 279.060,227.937 279.121,229.377 279.196 M73.145 292.457 C 73.521 292.555,74.136 292.555,74.512 292.457 C 74.888 292.359,74.580 292.278,73.828 292.278 C 73.076 292.278,72.769 292.359,73.145 292.457 M283.588 297.754 C 288.482 302.743,289.063 303.302,289.063 303.022 C 289.063 302.965,286.646 300.548,283.691 297.651 L 278.320 292.383 283.588 297.754 M318.759 292.784 C 318.754 293.005,319.995 294.411,321.517 295.909 C 323.040 297.407,324.796 299.512,325.420 300.586 C 326.044 301.660,326.557 302.354,326.559 302.127 C 326.566 301.327,324.265 298.207,321.534 295.313 C 320.013 293.701,318.765 292.563,318.759 292.784 M53.134 294.957 C 53.098 297.391,58.572 304.501,61.764 306.167 C 62.706 306.658,63.145 306.834,62.741 306.557 C 58.450 303.626,55.631 300.385,54.071 296.592 C 53.561 295.351,53.139 294.615,53.134 294.957 M326.828 304.492 C 326.952 305.566,327.119 306.519,327.198 306.608 C 327.473 306.916,327.266 304.492,326.934 303.516 C 326.710 302.857,326.676 303.175,326.828 304.492 M286.666 304.994 C 285.671 305.792,284.528 306.668,284.127 306.939 C 283.726 307.211,283.926 307.174,284.570 306.858 C 285.667 306.320,289.100 303.546,288.672 303.544 C 288.564 303.544,287.662 304.196,286.666 304.994 M65.625 308.086 C 66.377 308.416,67.695 308.748,68.555 308.824 L 70.117 308.963 68.555 308.616 C 67.695 308.424,66.497 308.078,65.893 307.845 C 64.253 307.214,64.051 307.395,65.625 308.086 M279.102 308.594 C 278.038 308.864,278.020 308.894,278.906 308.911 C 279.443 308.921,280.234 308.778,280.664 308.594 C 281.627 308.180,280.728 308.180,279.102 308.594 M325.808 309.702 C 325.328 310.859,323.614 312.654,321.886 313.808 C 321.355 314.163,321.110 314.453,321.342 314.453 C 322.528 314.453,327.075 309.366,326.449 308.740 C 326.354 308.646,326.066 309.079,325.808 309.702 M122.363 309.277 C 150.884 309.333,197.554 309.333,226.074 309.277 C 254.595 309.222,231.260 309.177,174.219 309.177 C 117.178 309.177,93.843 309.222,122.363 309.277 " stroke="none" fill="#2c1110" fill-rule="evenodd"></path><path id="path3" d="M122.590 85.059 C 154.028 85.114,205.357 85.114,236.653 85.059 C 267.949 85.003,242.227 84.958,179.492 84.958 C 116.758 84.958,91.152 85.003,122.590 85.059 M76.661 110.742 C 76.665 111.602,76.745 111.907,76.839 111.421 C 76.932 110.935,76.929 110.232,76.831 109.859 C 76.733 109.485,76.657 109.883,76.661 110.742 M124.309 110.547 C 124.309 111.299,124.390 111.606,124.488 111.230 C 124.586 110.854,124.586 110.239,124.488 109.863 C 124.390 109.487,124.309 109.795,124.309 110.547 M228.032 146.370 C 228.518 146.463,229.221 146.460,229.594 146.362 C 229.968 146.264,229.570 146.188,228.711 146.192 C 227.852 146.197,227.546 146.277,228.032 146.370 M232.910 146.374 C 233.501 146.463,234.468 146.463,235.059 146.374 C 235.649 146.284,235.166 146.211,233.984 146.211 C 232.803 146.211,232.319 146.284,232.910 146.374 M52.841 160.938 C 52.841 161.904,52.917 162.300,53.010 161.816 C 53.103 161.333,53.103 160.542,53.010 160.059 C 52.917 159.575,52.841 159.971,52.841 160.938 M280.078 167.383 C 280.807 168.135,281.491 168.750,281.599 168.750 C 281.706 168.750,281.198 168.135,280.469 167.383 C 279.740 166.631,279.056 166.016,278.948 166.016 C 278.841 166.016,279.349 166.631,280.078 167.383 M52.859 170.313 C 52.859 171.709,52.930 172.280,53.017 171.582 C 53.104 170.884,53.104 169.741,53.017 169.043 C 52.930 168.345,52.859 168.916,52.859 170.313 M52.833 179.102 C 52.837 179.961,52.917 180.267,53.011 179.781 C 53.104 179.295,53.101 178.592,53.003 178.218 C 52.905 177.845,52.829 178.242,52.833 179.102 M230.273 193.750 C 235.856 199.336,240.512 203.906,240.619 203.906 C 240.727 203.906,236.247 199.336,230.664 193.750 C 225.081 188.164,220.426 183.594,220.318 183.594 C 220.211 183.594,224.691 188.164,230.273 193.750 M253.125 195.898 C 257.740 200.518,261.605 204.297,261.712 204.297 C 261.819 204.297,258.131 200.518,253.516 195.898 C 248.900 191.279,245.036 187.500,244.929 187.500 C 244.821 187.500,248.510 191.279,253.125 195.898 M181.781 212.500 C 181.781 214.541,181.847 215.376,181.928 214.355 C 182.008 213.335,182.008 211.665,181.928 210.645 C 181.847 209.624,181.781 210.459,181.781 212.500 M298.186 212.695 C 298.184 214.629,298.250 215.469,298.332 214.563 C 298.414 213.656,298.415 212.074,298.334 211.047 C 298.254 210.020,298.187 210.762,298.186 212.695 M281.769 212.695 C 281.771 214.199,281.841 214.767,281.926 213.956 C 282.010 213.146,282.009 211.915,281.923 211.222 C 281.836 210.528,281.767 211.191,281.769 212.695 M254.881 226.660 L 240.820 240.820 254.980 226.760 C 268.141 213.692,269.316 212.500,269.041 212.500 C 268.986 212.500,262.614 218.872,254.881 226.660 M52.825 217.578 C 52.825 218.330,52.905 218.638,53.004 218.262 C 53.102 217.886,53.102 217.271,53.004 216.895 C 52.905 216.519,52.825 216.826,52.825 217.578 M234.953 225.488 L 231.445 229.102 235.059 225.594 C 237.046 223.665,238.672 222.039,238.672 221.981 C 238.672 221.697,238.210 222.132,234.953 225.488 M52.851 226.953 C 52.851 228.135,52.925 228.618,53.014 228.027 C 53.104 227.437,53.104 226.470,53.014 225.879 C 52.925 225.288,52.851 225.771,52.851 226.953 M52.851 233.203 C 52.851 234.385,52.925 234.868,53.014 234.277 C 53.104 233.687,53.104 232.720,53.014 232.129 C 52.925 231.538,52.851 232.021,52.851 233.203 M294.531 268.945 C 297.856 272.275,300.664 275.000,300.772 275.000 C 300.879 275.000,298.247 272.275,294.922 268.945 C 291.597 265.615,288.789 262.891,288.681 262.891 C 288.574 262.891,291.206 265.615,294.531 268.945 M271.875 273.633 C 274.554 276.318,276.834 278.516,276.941 278.516 C 277.049 278.516,274.945 276.318,272.266 273.633 C 269.587 270.947,267.307 268.750,267.199 268.750 C 267.092 268.750,269.196 270.947,271.875 273.633 M229.980 278.804 C 231.108 278.883,232.954 278.883,234.082 278.804 C 235.210 278.725,234.287 278.660,232.031 278.660 C 229.775 278.660,228.853 278.725,229.980 278.804 M52.851 290.234 C 52.851 291.416,52.925 291.899,53.014 291.309 C 53.104 290.718,53.104 289.751,53.014 289.160 C 52.925 288.569,52.851 289.053,52.851 290.234 M307.796 309.863 C 308.754 310.884,309.589 311.719,309.652 311.719 C 309.945 311.719,309.635 311.368,307.910 309.749 L 306.055 308.008 307.796 309.863 " stroke="none" fill="#3c7c7c" fill-rule="evenodd"></path></g></svg>