<svg id="svg" version="1.1" xmlns="http://www.w3.org/2000/svg" xmlns:xlink="http://www.w3.org/1999/xlink" width="400" height="266.6666666666667" viewBox="0, 0, 400,266.6666666666667"><g id="svgg"><path id="path0" d="M104.557 79.948 C 45.602 80.096,51.639 79.823,49.241 82.447 C 46.799 85.119,47.005 80.851,47.005 128.646 L 47.005 170.703 47.689 172.135 C 48.745 174.347,50.029 175.639,52.279 176.751 L 54.270 177.734 62.747 177.718 C 67.409 177.710,82.210 177.680,95.638 177.653 L 120.052 177.604 120.052 173.568 L 120.052 169.531 88.151 169.531 C 56.597 169.531,56.244 169.526,55.729 169.010 C 55.214 168.496,55.208 168.142,55.208 137.934 L 55.208 107.378 80.642 107.204 C 94.631 107.109,117.482 107.031,131.423 107.031 L 156.771 107.031 156.802 137.956 C 156.819 154.964,156.820 169.000,156.804 169.147 C 156.788 169.294,157.997 170.633,159.492 172.122 C 162.543 175.163,162.534 175.161,163.666 172.929 C 164.834 170.624,164.813 171.391,164.875 127.987 L 164.935 86.313 164.277 84.876 C 163.002 82.093,160.325 80.113,157.552 79.905 C 156.908 79.857,133.060 79.876,104.557 79.948 M308.724 86.889 C 287.765 91.351,287.167 123.323,307.943 128.664 C 314.737 130.410,322.391 128.475,326.957 123.856 C 328.772 122.020,330.847 118.965,330.462 118.693 C 329.935 118.321,325.112 116.983,325.043 117.191 C 323.612 121.458,316.223 124.770,310.734 123.604 C 293.656 119.978,295.788 92.052,313.151 91.946 C 318.394 91.914,322.655 94.437,324.857 98.877 C 324.870 98.904,326.189 98.550,327.789 98.091 L 330.697 97.256 329.824 95.623 C 326.180 88.802,317.199 85.085,308.724 86.889 M223.958 107.747 L 223.958 128.385 226.953 128.385 L 229.948 128.385 229.948 120.182 L 229.948 111.979 233.689 111.979 L 237.431 111.979 242.192 120.182 L 246.953 128.385 250.451 128.385 L 253.949 128.385 253.435 127.539 C 245.243 114.037,243.715 111.198,244.642 111.198 C 245.504 111.198,248.717 109.278,249.810 108.110 C 254.807 102.768,253.730 93.198,247.701 89.358 C 244.781 87.497,244.122 87.399,233.528 87.247 L 223.958 87.109 223.958 107.747 M259.744 87.218 C 259.684 87.278,259.635 96.565,259.635 107.856 L 259.635 128.385 262.760 128.385 L 265.885 128.385 265.885 120.601 L 265.885 112.817 271.680 112.688 C 275.806 112.597,277.948 112.438,279.121 112.138 C 292.367 108.744,292.365 90.694,279.118 87.642 C 277.580 87.288,260.056 86.904,259.744 87.218 M155.910 88.649 L 156.641 89.277 156.641 95.615 L 156.641 101.953 105.924 102.019 L 55.208 102.085 55.208 95.733 C 55.208 90.067,55.258 89.321,55.664 88.828 L 56.120 88.275 90.625 88.212 C 109.603 88.177,131.891 88.120,140.155 88.085 L 155.179 88.021 155.910 88.649 M242.529 92.950 C 248.557 95.296,248.366 104.121,242.238 106.406 C 241.257 106.772,239.921 106.883,235.482 106.969 L 229.948 107.076 229.948 99.603 L 229.948 92.129 235.482 92.245 C 240.445 92.349,241.172 92.422,242.529 92.950 M278.186 92.889 C 283.214 95.203,284.440 101.271,280.645 105.066 C 278.565 107.146,277.735 107.361,271.289 107.490 L 265.885 107.598 265.885 99.870 L 265.885 92.143 271.419 92.233 C 276.442 92.314,277.067 92.375,278.186 92.889 M125.885 93.594 C 125.168 94.312,125.000 94.680,125.000 95.543 C 125.000 98.497,129.235 99.512,130.595 96.884 C 132.117 93.940,128.244 91.235,125.885 93.594 M137.311 93.627 C 135.000 95.937,137.757 99.452,140.762 98.026 C 143.571 96.693,142.425 92.712,139.232 92.709 C 138.431 92.709,138.044 92.893,137.311 93.627 M149.247 93.072 C 147.756 93.898,147.445 96.183,148.659 97.397 C 150.761 99.499,154.335 97.810,153.802 94.967 C 153.451 93.095,151.026 92.086,149.247 93.072 M196.951 95.705 C 187.294 97.804,182.433 109.744,187.305 119.401 C 191.312 127.344,203.228 129.687,209.572 123.779 C 211.080 122.375,211.087 122.384,210.776 125.591 C 209.854 135.113,199.042 138.360,191.919 131.255 L 190.478 129.818 188.332 130.939 L 186.185 132.061 187.292 133.638 C 193.610 142.645,210.136 141.836,214.801 132.292 C 216.327 129.170,216.406 128.138,216.406 111.435 L 216.406 96.354 213.542 96.354 L 210.677 96.354 210.677 97.817 L 210.677 99.279 209.645 98.347 C 206.765 95.745,201.658 94.682,196.951 95.705 M204.213 100.519 C 212.311 102.858,213.099 117.546,205.332 121.368 C 200.793 123.601,194.359 121.264,192.175 116.589 C 188.001 107.655,195.280 97.938,204.213 100.519 M110.664 110.282 C 101.231 112.070,91.267 120.224,88.941 128.060 L 88.767 128.646 92.524 128.646 L 96.280 128.646 97.266 127.049 C 104.610 115.150,121.214 113.127,130.947 122.944 C 143.967 136.075,136.291 158.711,118.071 160.918 C 108.256 162.107,97.188 155.051,94.512 145.898 L 94.188 144.792 90.738 144.792 L 87.287 144.792 87.751 146.289 C 93.691 165.460,115.274 173.605,131.566 162.823 L 132.580 162.152 134.194 163.751 L 135.807 165.350 135.713 166.718 L 135.619 168.086 143.202 175.574 C 147.373 179.692,151.124 183.237,151.537 183.451 C 155.923 185.718,160.937 181.102,158.877 176.693 C 158.282 175.418,144.234 161.362,143.147 160.953 C 142.744 160.801,141.979 160.677,141.446 160.677 C 140.611 160.677,140.271 160.467,138.962 159.145 L 137.446 157.613 138.874 155.564 C 153.605 134.441,135.609 105.555,110.664 110.282 M78.646 122.786 C 79.569 123.717,80.382 124.479,80.454 124.479 C 80.525 124.479,79.829 123.717,78.906 122.786 C 77.984 121.855,77.170 121.094,77.098 121.094 C 77.027 121.094,77.723 121.855,78.646 122.786 M80.199 129.622 L 78.776 131.120 80.273 129.696 C 81.665 128.374,81.890 128.125,81.697 128.125 C 81.656 128.125,80.982 128.799,80.199 129.622 M118.940 131.189 L 117.191 132.952 118.814 134.575 L 120.438 136.198 105.466 136.228 C 91.076 136.258,82.766 136.526,90.234 136.721 C 91.953 136.765,92.961 136.851,92.475 136.910 C 91.989 136.969,91.403 137.208,91.173 137.440 C 90.789 137.827,90.792 137.847,91.211 137.689 C 91.691 137.507,91.850 137.877,91.409 138.149 C 91.251 138.247,91.313 138.555,91.569 138.946 C 91.953 139.531,91.953 139.583,91.566 139.583 C 91.335 139.583,91.146 139.707,91.146 139.859 C 91.146 140.011,91.280 140.052,91.444 139.951 C 91.650 139.823,91.701 139.980,91.610 140.456 C 91.492 141.074,91.563 141.152,92.289 141.204 C 92.734 141.236,90.111 141.327,86.458 141.406 C 82.432 141.493,87.790 141.573,100.065 141.608 C 111.201 141.640,120.313 141.751,120.313 141.855 C 120.313 141.959,119.582 142.780,118.690 143.680 L 117.067 145.318 118.820 147.070 L 120.573 148.823 125.521 143.880 L 130.469 138.937 125.719 134.182 C 123.106 131.567,120.906 129.427,120.829 129.427 C 120.752 129.427,119.902 130.220,118.940 131.189 M60.417 137.891 C 59.784 138.535,59.325 139.063,59.397 139.063 C 59.468 139.063,60.045 138.535,60.677 137.891 C 61.310 137.246,61.769 136.719,61.697 136.719 C 61.625 136.719,61.049 137.246,60.417 137.891 M75.065 141.593 C 75.459 141.652,76.104 141.652,76.497 141.593 C 76.891 141.533,76.569 141.484,75.781 141.484 C 74.993 141.484,74.671 141.533,75.065 141.593 M77.933 141.593 C 78.329 141.653,78.915 141.651,79.235 141.590 C 79.556 141.528,79.232 141.479,78.516 141.481 C 77.799 141.483,77.537 141.533,77.933 141.593 M224.219 156.079 L 224.219 165.803 225.546 165.817 L 226.873 165.830 226.770 164.946 C 226.645 163.869,226.614 163.870,227.897 164.901 C 230.606 167.078,235.265 165.822,236.680 162.532 C 239.725 155.454,232.916 148.403,227.669 153.201 L 227.083 153.737 227.083 150.045 L 227.083 146.354 225.651 146.354 L 224.219 146.354 224.219 156.079 M291.927 156.120 L 291.927 165.885 293.359 165.885 L 294.792 165.885 294.792 156.120 L 294.792 146.354 293.359 146.354 L 291.927 146.354 291.927 156.120 M183.858 146.875 C 183.861 146.947,185.021 151.224,186.436 156.380 L 189.009 165.755 190.595 165.789 C 192.161 165.822,192.183 165.812,192.399 165.007 C 192.520 164.559,193.369 161.359,194.287 157.896 C 195.205 154.432,195.993 151.636,196.039 151.681 C 196.085 151.727,196.974 154.912,198.016 158.760 L 199.909 165.755 201.513 165.799 L 203.117 165.842 203.367 164.887 C 203.505 164.362,204.620 160.186,205.845 155.608 C 207.070 151.030,208.073 147.163,208.073 147.014 C 208.074 146.849,207.479 146.778,206.540 146.832 L 205.005 146.918 203.225 154.052 C 202.247 157.975,201.366 161.041,201.267 160.866 C 201.102 160.570,197.396 147.304,197.396 147.008 C 197.396 146.935,196.779 146.875,196.024 146.875 L 194.653 146.875 192.983 153.060 C 192.065 156.462,191.173 159.655,191.002 160.156 L 190.691 161.068 190.414 160.026 C 190.175 159.130,189.486 156.479,187.641 149.356 C 187.419 148.501,187.175 147.603,187.098 147.361 C 186.968 146.952,183.844 146.484,183.858 146.875 M246.872 146.810 C 246.870 146.846,246.867 151.123,246.865 156.315 L 246.861 165.755 252.597 165.832 L 258.333 165.910 258.333 164.530 L 258.333 163.151 254.036 163.152 L 249.740 163.152 249.740 160.204 L 249.740 157.255 253.776 157.338 L 257.813 157.422 257.813 156.185 L 257.813 154.948 253.776 154.948 L 249.740 154.948 249.740 152.083 L 249.740 149.219 254.051 149.219 L 258.362 149.219 258.282 148.035 L 258.203 146.852 252.539 146.798 C 249.424 146.769,246.873 146.774,246.872 146.810 M212.370 152.317 C 205.942 155.293,208.230 165.858,215.308 165.880 C 217.694 165.887,220.833 164.410,220.833 163.280 C 220.833 162.755,218.928 161.931,218.691 162.354 C 217.076 165.240,211.458 163.389,211.458 159.971 L 211.458 159.375 216.311 159.375 L 221.164 159.375 221.038 157.617 C 220.705 152.980,216.496 150.406,212.370 152.317 M260.742 152.093 C 260.778 152.170,261.803 153.685,263.021 155.461 C 264.238 157.236,265.209 158.774,265.177 158.878 C 265.146 158.982,264.120 160.531,262.899 162.321 C 261.677 164.110,260.677 165.620,260.677 165.676 C 260.677 165.731,261.351 165.758,262.174 165.735 L 263.672 165.694 265.142 163.430 C 265.950 162.185,266.665 161.113,266.731 161.047 C 266.797 160.981,267.584 162.038,268.480 163.396 L 270.108 165.866 271.749 165.812 C 272.652 165.783,273.333 165.667,273.264 165.556 C 273.195 165.444,272.111 163.875,270.855 162.068 L 268.571 158.783 270.874 155.467 C 272.141 153.643,273.177 152.106,273.178 152.052 C 273.178 151.997,272.486 151.992,271.640 152.040 L 270.101 152.127 268.622 154.349 C 267.641 155.823,267.057 156.484,266.885 156.312 C 266.742 156.169,266.019 155.147,265.277 154.040 L 263.929 152.027 262.303 151.990 C 261.408 151.970,260.706 152.016,260.742 152.093 M275.781 161.523 L 275.781 171.094 277.214 171.094 L 278.646 171.094 278.646 167.529 L 278.646 163.965 279.362 164.633 C 284.141 169.090,290.847 162.877,288.638 156.038 C 287.282 151.838,282.172 150.322,279.102 153.208 L 278.385 153.881 278.385 153.007 C 278.385 152.144,278.369 152.132,277.083 152.043 L 275.781 151.953 275.781 161.523 M301.102 152.374 C 296.170 154.815,296.203 162.959,301.154 165.356 C 306.848 168.112,312.420 162.686,310.521 156.232 C 309.449 152.587,304.646 150.620,301.102 152.374 M314.909 152.033 L 313.802 152.113 313.802 158.999 L 313.802 165.885 315.234 165.885 L 316.667 165.885 316.668 161.784 C 316.670 155.781,317.316 154.356,320.049 154.316 L 321.354 154.297 321.354 153.060 L 321.354 151.823 320.169 151.823 C 318.864 151.823,317.851 152.247,317.057 153.127 L 316.536 153.703 316.276 152.828 C 316.028 151.993,315.965 151.957,314.909 152.033 M326.283 152.324 C 321.441 154.954,321.533 163.175,326.430 165.400 C 328.721 166.441,332.390 165.839,334.180 164.129 C 335.094 163.255,335.089 163.225,333.891 162.552 L 332.886 161.987 332.394 162.540 C 330.194 165.009,326.035 163.716,325.593 160.427 L 325.452 159.375 330.340 159.375 L 335.228 159.375 335.091 157.670 C 334.720 153.052,330.103 150.250,326.283 152.324 M338.281 158.917 L 338.281 165.885 339.550 165.885 L 340.819 165.885 340.937 161.523 C 341.096 155.681,341.785 154.309,344.560 154.309 L 345.573 154.309 345.573 153.066 L 345.573 151.823 344.518 151.823 C 343.347 151.823,342.310 152.270,341.561 153.098 C 340.886 153.844,340.625 153.786,340.625 152.891 C 340.625 152.183,340.551 152.130,339.453 152.043 L 338.281 151.949 338.281 158.917 M79.030 154.753 L 76.953 156.901 79.102 154.824 C 81.097 152.895,81.369 152.604,81.179 152.604 C 81.140 152.604,80.173 153.571,79.030 154.753 M216.936 154.301 C 217.798 154.747,218.490 155.898,218.490 156.888 L 218.490 157.552 214.974 157.552 C 212.852 157.552,211.458 157.451,211.458 157.297 C 211.458 154.817,214.605 153.096,216.936 154.301 M232.536 154.641 C 236.134 157.298,234.236 164.469,230.139 163.700 C 225.306 162.794,226.272 153.291,231.120 154.050 C 231.549 154.118,232.187 154.384,232.536 154.641 M283.849 154.492 C 287.477 156.346,286.590 163.219,282.660 163.706 C 278.124 164.269,276.955 155.550,281.375 154.128 C 282.287 153.834,282.671 153.891,283.849 154.492 M306.250 154.663 C 308.614 156.368,308.556 161.377,306.153 163.091 C 304.481 164.284,302.014 163.632,301.058 161.744 C 298.750 157.189,302.555 151.999,306.250 154.663 M331.131 154.434 C 331.952 154.941,332.552 156.055,332.552 157.070 C 332.552 157.515,332.284 157.552,329.036 157.552 C 325.154 157.552,325.181 157.566,325.880 155.895 C 326.690 153.956,329.220 153.253,331.131 154.434 " stroke="none" fill="#033e54" fill-rule="evenodd"></path><path id="path1" d="M0.000 133.333 L 0.000 266.667 200.000 266.667 L 400.000 266.667 400.000 133.333 L 400.000 0.000 200.000 0.000 L 0.000 0.000 0.000 133.333 M159.942 80.380 C 161.666 81.177,163.411 82.884,164.252 84.599 L 164.974 86.068 164.981 110.286 C 164.985 123.607,164.927 142.708,164.851 152.734 L 164.714 170.964 164.107 172.305 C 163.773 173.043,163.212 173.917,162.860 174.247 L 162.221 174.848 159.511 172.125 L 156.801 169.401 156.738 138.346 L 156.674 107.292 105.941 107.292 L 55.208 107.292 55.208 137.809 L 55.208 168.326 55.775 168.929 L 56.341 169.531 88.196 169.531 L 120.052 169.531 120.052 173.655 L 120.052 177.778 87.039 177.756 L 54.027 177.734 52.291 176.880 C 50.342 175.921,48.603 174.181,47.624 172.208 L 47.005 170.964 46.936 129.051 C 46.860 82.803,46.759 85.775,48.500 83.172 C 49.444 81.763,51.506 80.372,53.232 79.982 C 53.868 79.838,75.314 79.756,106.510 79.779 L 158.724 79.818 159.942 80.380 M317.485 86.834 C 322.914 87.985,327.654 91.305,329.908 95.536 C 330.387 96.436,330.739 97.211,330.689 97.259 C 330.535 97.408,324.948 98.994,324.880 98.909 C 324.845 98.864,324.402 98.173,323.896 97.373 C 320.713 92.334,313.285 90.535,307.330 93.362 C 296.647 98.433,296.065 115.926,306.380 121.907 C 312.506 125.459,321.134 123.608,324.396 118.043 C 324.755 117.429,325.120 116.927,325.207 116.927 C 325.377 116.927,330.535 118.562,330.699 118.668 C 331.488 119.177,326.264 125.092,323.663 126.634 C 310.020 134.724,293.334 125.177,292.772 108.959 C 292.260 94.178,303.722 83.917,317.485 86.834 M243.359 87.496 C 255.268 90.372,256.672 107.295,245.316 111.067 C 243.722 111.596,243.172 110.259,248.958 119.936 C 251.680 124.487,253.906 128.309,253.906 128.428 C 253.906 128.955,247.184 128.673,246.804 128.130 C 246.605 127.847,244.401 124.099,241.906 119.802 L 237.370 111.990 233.652 111.984 L 229.934 111.979 229.956 120.247 L 229.977 128.516 226.968 128.589 L 223.958 128.662 223.958 107.795 L 223.958 86.929 233.008 87.055 C 238.749 87.135,242.533 87.296,243.359 87.496 M279.557 87.615 C 287.114 89.797,290.830 96.899,288.287 104.297 C 286.183 110.416,281.442 112.760,271.170 112.761 L 266.016 112.761 265.984 120.638 L 265.952 128.516 262.794 128.589 L 259.635 128.662 259.635 107.798 L 259.635 86.934 268.815 87.049 C 276.505 87.145,278.248 87.237,279.557 87.615 M55.729 88.802 C 55.237 89.295,55.208 89.670,55.208 95.743 L 55.208 102.162 57.983 101.993 C 59.509 101.899,82.302 101.823,108.634 101.823 L 156.510 101.823 156.510 95.483 C 156.510 89.672,156.471 89.107,156.034 88.712 C 155.214 87.970,56.473 88.058,55.729 88.802 M265.937 99.845 L 265.859 107.552 270.364 107.547 C 279.451 107.536,282.617 105.519,282.640 99.726 C 282.662 94.291,279.859 92.435,271.354 92.253 L 266.016 92.138 265.937 99.845 M153.060 93.627 C 154.209 94.844,154.247 96.314,153.158 97.403 C 151.145 99.416,147.917 98.233,147.917 95.481 C 147.917 92.670,151.080 91.530,153.060 93.627 M229.998 99.656 L 230.078 106.901 235.417 106.881 C 244.206 106.848,247.280 104.679,246.811 98.839 C 246.418 93.934,244.113 92.615,235.727 92.495 L 229.918 92.412 229.998 99.656 M130.104 93.594 C 132.665 96.155,129.281 99.855,126.134 97.936 C 125.638 97.634,125.193 97.068,125.007 96.505 C 124.025 93.529,127.853 91.343,130.104 93.594 M141.563 93.594 C 143.568 95.599,141.972 98.644,139.071 98.347 C 137.479 98.184,136.456 97.069,136.464 95.504 C 136.478 92.857,139.641 91.672,141.563 93.594 M204.219 95.599 C 206.087 95.988,208.565 97.227,209.724 98.352 L 210.677 99.278 210.677 97.751 L 210.677 96.224 213.542 96.224 L 216.406 96.224 216.402 111.719 C 216.396 130.918,216.286 131.583,212.465 135.563 C 206.696 141.571,194.230 141.465,188.634 135.362 C 187.467 134.090,186.058 132.079,186.225 131.926 C 186.282 131.874,187.288 131.351,188.461 130.764 L 190.595 129.697 191.202 130.473 C 194.418 134.583,201.182 136.021,205.958 133.610 C 209.208 131.969,210.667 129.276,210.674 124.905 L 210.677 122.856 209.645 123.789 C 201.739 130.932,188.340 126.340,185.822 115.625 C 182.955 103.423,192.399 93.142,204.219 95.599 M199.609 100.266 C 189.876 101.668,187.905 117.108,196.932 121.244 C 199.319 122.338,203.068 122.353,205.258 121.278 C 213.636 117.163,212.014 101.593,203.081 100.381 C 202.461 100.297,201.719 100.194,201.432 100.153 C 201.146 100.112,200.326 100.163,199.609 100.266 M121.776 110.409 C 141.930 114.423,151.084 139.761,138.389 156.392 L 137.452 157.619 138.965 159.148 C 140.362 160.559,140.569 160.678,141.659 160.686 C 143.369 160.700,143.330 160.668,151.426 168.735 C 159.426 176.706,159.525 176.838,159.318 179.335 C 159.080 182.194,156.986 183.985,153.883 183.984 C 151.556 183.983,151.483 183.925,142.904 175.323 L 135.677 168.078 135.677 166.648 C 135.677 165.250,135.643 165.184,134.156 163.713 L 132.634 162.207 130.948 163.264 C 118.094 171.324,100.269 167.672,91.960 155.278 C 90.071 152.460,87.243 146.197,87.239 144.824 C 87.239 144.734,88.801 144.697,90.711 144.740 L 94.184 144.819 94.899 146.650 C 97.195 152.526,102.669 157.778,108.584 159.780 C 126.863 165.964,143.485 146.989,135.303 129.279 C 128.092 113.672,107.148 112.349,97.450 126.888 L 96.278 128.646 92.407 128.646 L 88.536 128.646 89.615 126.499 C 95.888 114.023,108.426 107.750,121.776 110.409 M80.313 124.112 L 83.153 127.128 78.624 131.663 L 74.094 136.198 97.268 136.186 L 120.443 136.175 118.765 134.611 L 117.088 133.047 118.961 131.173 L 120.835 129.300 125.653 134.118 L 130.470 138.936 125.524 143.877 L 120.577 148.819 118.793 147.048 L 117.009 145.277 118.661 143.691 C 119.569 142.819,120.313 142.036,120.313 141.951 C 120.313 141.866,109.767 141.797,96.878 141.797 L 73.443 141.797 78.113 146.484 L 82.784 151.172 79.975 154.079 L 77.166 156.987 68.207 148.025 L 59.248 139.063 68.229 130.078 C 73.169 125.137,77.270 121.094,77.342 121.095 C 77.415 121.096,78.752 122.454,80.313 124.112 M227.083 149.897 L 227.083 153.700 227.991 152.903 C 232.840 148.645,239.156 154.747,237.092 161.696 C 235.864 165.830,230.808 167.507,227.727 164.803 L 226.823 164.009 226.823 164.947 L 226.823 165.885 225.521 165.885 L 224.219 165.885 224.219 155.990 L 224.219 146.094 225.651 146.094 L 227.083 146.094 227.083 149.897 M294.792 155.990 L 294.792 165.885 293.359 165.885 L 291.927 165.885 291.927 155.990 L 291.927 146.094 293.359 146.094 L 294.792 146.094 294.792 155.990 M187.205 147.461 C 187.352 147.926,188.192 151.120,189.073 154.557 C 189.954 157.995,190.697 160.831,190.723 160.859 C 190.750 160.888,191.645 157.694,192.712 153.763 L 194.652 146.615 196.024 146.615 C 196.778 146.615,197.396 146.675,197.396 146.748 C 197.396 147.044,201.102 160.310,201.267 160.605 C 201.365 160.780,202.247 157.704,203.226 153.769 L 205.007 146.615 206.670 146.615 C 207.585 146.615,208.330 146.644,208.325 146.680 C 208.320 146.715,207.163 151.022,205.753 156.250 L 203.190 165.755 201.526 165.831 L 199.862 165.906 198.068 159.190 C 197.082 155.496,196.203 152.333,196.116 152.162 C 196.029 151.990,195.131 154.978,194.120 158.802 L 192.283 165.755 190.612 165.755 L 188.940 165.755 186.400 156.510 C 183.375 145.500,183.488 146.615,185.396 146.615 C 186.908 146.615,186.944 146.631,187.205 147.461 M258.333 147.917 L 258.333 149.219 254.036 149.219 L 249.740 149.219 249.740 152.083 L 249.740 154.948 253.776 154.948 L 257.813 154.948 257.813 156.250 L 257.813 157.552 253.776 157.552 L 249.740 157.552 249.740 160.286 L 249.740 163.021 254.167 163.021 L 258.594 163.021 258.594 164.453 L 258.594 165.885 252.604 165.885 L 246.615 165.885 246.615 156.250 L 246.615 146.615 252.474 146.615 L 258.333 146.615 258.333 147.917 M216.638 151.841 C 219.223 152.395,220.845 154.487,221.219 157.747 L 221.405 159.375 216.420 159.375 L 211.435 159.375 211.608 160.352 C 212.180 163.565,215.687 164.843,218.106 162.719 L 219.003 161.932 219.918 162.498 C 221.002 163.168,221.020 163.264,220.215 164.133 C 217.069 167.527,210.603 166.182,209.087 161.818 C 207.106 156.118,211.222 150.680,216.638 151.841 M285.653 152.206 C 289.664 154.308,290.309 161.439,286.776 164.631 C 284.853 166.368,281.751 166.569,279.709 165.090 L 278.646 164.320 278.646 167.707 L 278.646 171.094 277.214 171.094 L 275.781 171.094 275.781 161.458 L 275.781 151.823 277.083 151.823 L 278.385 151.823 278.385 152.780 L 278.385 153.737 278.971 153.203 C 280.690 151.638,283.709 151.187,285.653 152.206 M307.556 152.501 C 309.808 153.727,310.938 155.892,310.938 158.982 C 310.938 168.277,297.999 168.588,297.448 159.306 C 297.100 153.433,302.540 149.771,307.556 152.501 M320.942 151.721 C 321.240 151.835,321.354 152.231,321.354 153.153 L 321.354 154.427 320.032 154.427 C 317.357 154.427,316.670 155.956,316.668 161.914 L 316.667 165.885 315.234 165.885 L 313.802 165.885 313.802 158.840 L 313.802 151.794 315.039 151.874 C 316.212 151.949,316.280 151.995,316.355 152.761 L 316.434 153.569 317.183 152.869 C 318.229 151.892,319.988 151.354,320.942 151.721 M331.985 152.323 C 333.957 153.334,335.141 155.412,335.151 157.878 L 335.156 159.375 330.339 159.375 L 325.521 159.375 325.527 159.961 C 325.558 163.181,329.434 164.879,332.016 162.804 L 333.086 161.944 333.991 162.504 C 335.125 163.205,335.121 163.278,333.865 164.412 C 330.213 167.712,324.180 165.891,322.890 161.100 C 321.231 154.938,326.733 149.629,331.985 152.323 M345.161 151.721 C 345.459 151.835,345.573 152.231,345.573 153.153 L 345.573 154.427 344.421 154.427 C 341.788 154.427,341.149 155.861,341.147 161.784 L 341.146 165.885 339.714 165.885 L 338.281 165.885 338.281 158.854 L 338.281 151.823 339.424 151.823 C 340.537 151.823,340.572 151.848,340.749 152.792 C 340.889 153.541,340.983 153.667,341.162 153.347 C 341.481 152.778,342.667 152.032,343.614 151.804 C 344.703 151.543,344.700 151.544,345.161 151.721 M265.463 154.171 C 266.305 155.458,267.023 156.510,267.057 156.510 C 267.092 156.510,267.809 155.458,268.651 154.171 L 270.182 151.831 271.826 151.827 L 273.470 151.823 271.458 154.753 C 270.352 156.364,269.276 157.883,269.067 158.128 C 268.570 158.711,268.573 158.716,271.191 162.439 C 273.870 166.247,273.811 165.885,271.749 165.885 L 270.060 165.885 268.420 163.433 L 266.779 160.980 265.228 163.433 L 263.676 165.885 262.027 165.885 L 260.378 165.885 262.625 162.616 C 263.860 160.817,264.932 159.187,265.007 158.992 C 265.082 158.798,264.138 157.176,262.910 155.389 C 260.248 151.515,260.300 151.822,262.305 151.827 L 263.932 151.831 265.463 154.171 M213.802 154.090 C 213.202 154.310,212.207 155.279,211.986 155.859 C 211.877 156.146,211.706 156.644,211.606 156.966 L 211.423 157.552 214.956 157.552 C 218.371 157.552,218.490 157.534,218.490 157.006 C 218.490 154.902,215.932 153.312,213.802 154.090 M327.188 154.400 C 326.479 154.833,325.521 156.497,325.521 157.297 C 325.521 157.451,326.926 157.552,329.069 157.552 L 332.617 157.552 332.451 156.719 C 331.973 154.329,329.263 153.135,327.188 154.400 M228.630 154.871 C 226.413 156.736,226.562 161.725,228.876 163.092 C 231.549 164.671,234.364 162.498,234.364 158.854 C 234.364 155.079,231.088 152.803,228.630 154.871 M280.132 154.935 C 277.235 157.479,278.733 163.540,282.271 163.588 C 285.010 163.626,286.793 160.021,285.689 156.677 C 284.892 154.262,281.949 153.340,280.132 154.935 M302.270 154.629 C 299.994 156.040,299.871 160.990,302.068 162.838 C 304.611 164.977,307.849 162.755,307.874 158.853 C 307.897 155.135,304.990 152.944,302.270 154.629 " stroke="none" fill="#fbfbfb" fill-rule="evenodd"></path><path id="path2" d="M75.456 79.883 C 84.372 79.921,98.962 79.921,107.878 79.883 C 116.794 79.845,109.499 79.814,91.667 79.814 C 73.835 79.814,66.540 79.845,75.456 79.883 M238.867 87.159 C 239.118 87.224,239.528 87.224,239.779 87.159 C 240.029 87.093,239.824 87.040,239.323 87.040 C 238.822 87.040,238.617 87.093,238.867 87.159 M275.065 87.159 C 275.316 87.224,275.726 87.224,275.977 87.159 C 276.227 87.093,276.022 87.040,275.521 87.040 C 275.020 87.040,274.814 87.093,275.065 87.159 M144.841 88.215 C 146.659 88.260,149.706 88.260,151.612 88.216 C 153.518 88.171,152.031 88.134,148.307 88.134 C 144.583 88.134,143.024 88.171,144.841 88.215 M232.083 92.381 C 233.329 92.429,235.439 92.429,236.771 92.382 C 238.103 92.334,237.083 92.295,234.505 92.295 C 231.927 92.295,230.837 92.334,232.083 92.381 M265.973 94.271 C 265.973 95.345,266.019 95.785,266.075 95.247 C 266.131 94.710,266.131 93.831,266.075 93.294 C 266.019 92.757,265.973 93.197,265.973 94.271 M156.563 99.413 L 156.510 101.822 107.617 101.888 L 58.724 101.954 107.625 102.019 C 148.186 102.072,156.549 102.024,156.660 101.736 C 156.733 101.545,156.754 100.402,156.705 99.197 L 156.616 97.005 156.563 99.413 M149.805 107.225 C 151.058 107.273,153.109 107.273,154.362 107.225 C 155.615 107.177,154.590 107.138,152.083 107.138 C 149.577 107.138,148.551 107.177,149.805 107.225 M156.604 109.896 C 156.604 111.257,156.648 111.813,156.702 111.133 C 156.755 110.452,156.755 109.339,156.702 108.659 C 156.648 107.979,156.604 108.535,156.604 109.896 M164.965 120.443 C 164.965 127.604,164.998 130.496,165.039 126.870 C 165.080 123.243,165.080 117.384,165.039 113.849 C 164.998 110.314,164.964 113.281,164.965 120.443 M265.969 121.354 C 265.969 122.285,266.016 122.666,266.074 122.201 C 266.132 121.735,266.132 120.973,266.074 120.508 C 266.016 120.042,265.969 120.423,265.969 121.354 M210.743 123.568 C 210.746 124.141,210.799 124.344,210.861 124.020 C 210.924 123.696,210.921 123.228,210.856 122.979 C 210.791 122.730,210.740 122.995,210.743 123.568 M312.829 123.885 C 313.225 123.945,313.811 123.943,314.131 123.881 C 314.451 123.819,314.128 123.770,313.411 123.772 C 312.695 123.774,312.433 123.825,312.829 123.885 M226.953 128.385 L 223.828 128.541 226.873 128.593 C 228.680 128.625,229.983 128.540,230.078 128.385 C 230.167 128.242,230.203 128.149,230.159 128.177 C 230.114 128.206,228.672 128.300,226.953 128.385 M262.760 128.385 L 259.505 128.540 262.680 128.593 C 264.575 128.625,265.920 128.541,266.016 128.385 C 266.104 128.242,266.140 128.149,266.096 128.178 C 266.052 128.207,264.551 128.300,262.760 128.385 M248.763 128.579 C 249.730 128.629,251.312 128.629,252.279 128.579 C 253.245 128.528,252.454 128.487,250.521 128.487 C 248.587 128.487,247.796 128.528,248.763 128.579 M200.198 140.028 C 200.522 140.090,200.991 140.088,201.240 140.023 C 201.489 139.957,201.224 139.907,200.651 139.909 C 200.078 139.912,199.874 139.966,200.198 140.028 M85.221 141.862 C 91.488 141.901,101.742 141.901,108.008 141.862 C 114.274 141.823,109.147 141.791,96.615 141.791 C 84.082 141.791,78.955 141.823,85.221 141.862 M225.065 146.280 C 225.459 146.340,226.104 146.340,226.497 146.280 C 226.891 146.221,226.569 146.172,225.781 146.172 C 224.993 146.172,224.671 146.221,225.065 146.280 M292.648 146.282 C 293.116 146.340,293.819 146.339,294.210 146.280 C 294.602 146.220,294.219 146.173,293.359 146.174 C 292.500 146.176,292.180 146.225,292.648 146.282 M195.511 146.799 C 195.835 146.861,196.304 146.859,196.553 146.794 C 196.801 146.728,196.536 146.677,195.964 146.680 C 195.391 146.683,195.187 146.736,195.511 146.799 M206.058 146.801 C 206.454 146.861,207.040 146.860,207.360 146.798 C 207.681 146.736,207.357 146.687,206.641 146.689 C 205.924 146.691,205.662 146.742,206.058 146.801 M99.740 154.297 C 100.225 154.798,100.682 155.208,100.753 155.208 C 100.825 155.208,100.486 154.798,100.000 154.297 C 99.514 153.796,99.058 153.385,98.986 153.385 C 98.915 153.385,99.254 153.796,99.740 154.297 M221.154 158.594 C 221.154 159.095,221.208 159.300,221.273 159.049 C 221.339 158.799,221.339 158.389,221.273 158.138 C 221.208 157.887,221.154 158.092,221.154 158.594 M340.987 162.109 C 340.987 163.971,341.029 164.699,341.079 163.726 C 341.129 162.753,341.129 161.230,341.078 160.341 C 341.027 159.452,340.986 160.247,340.987 162.109 M258.414 164.453 C 258.415 165.313,258.464 165.633,258.522 165.165 C 258.580 164.697,258.579 163.993,258.519 163.602 C 258.460 163.211,258.413 163.594,258.414 164.453 M114.783 167.637 C 115.251 167.695,115.954 167.693,116.346 167.634 C 116.737 167.575,116.354 167.527,115.495 167.529 C 114.635 167.530,114.315 167.579,114.783 167.637 M99.821 177.799 C 102.229 177.842,106.097 177.842,108.415 177.799 C 110.733 177.756,108.763 177.721,104.036 177.721 C 99.310 177.721,97.413 177.756,99.821 177.799 " stroke="none" fill="#00bfff" fill-rule="evenodd"></path><path id="path3" d="M55.273 79.867 C 55.524 79.933,55.934 79.933,56.185 79.867 C 56.436 79.802,56.230 79.748,55.729 79.748 C 55.228 79.748,55.023 79.802,55.273 79.867 M57.227 79.871 C 57.549 79.933,58.076 79.933,58.398 79.871 C 58.721 79.809,58.457 79.758,57.813 79.758 C 57.168 79.758,56.904 79.809,57.227 79.871 M133.138 79.883 C 137.399 79.923,144.372 79.923,148.633 79.883 C 152.894 79.843,149.408 79.810,140.885 79.810 C 132.363 79.810,128.877 79.843,133.138 79.883 M227.669 87.174 C 229.495 87.219,232.484 87.219,234.310 87.174 C 236.136 87.129,234.642 87.092,230.990 87.092 C 227.337 87.092,225.843 87.129,227.669 87.174 M262.956 87.168 C 263.421 87.225,264.183 87.225,264.648 87.168 C 265.114 87.110,264.733 87.063,263.802 87.063 C 262.871 87.063,262.490 87.110,262.956 87.168 M267.760 87.173 C 269.006 87.221,271.116 87.221,272.448 87.173 C 273.780 87.126,272.760 87.087,270.182 87.087 C 267.604 87.086,266.514 87.125,267.760 87.173 M128.596 88.216 C 130.646 88.260,133.927 88.260,135.888 88.215 C 137.849 88.171,136.172 88.135,132.161 88.135 C 128.151 88.135,126.547 88.172,128.596 88.216 M156.610 94.141 C 156.610 95.859,156.652 96.529,156.703 95.628 C 156.754 94.727,156.754 93.321,156.703 92.503 C 156.651 91.685,156.609 92.422,156.610 94.141 M164.955 101.693 C 164.956 104.987,164.993 106.299,165.038 104.608 C 165.084 102.917,165.084 100.221,165.038 98.618 C 164.992 97.015,164.955 98.398,164.955 101.693 M103.471 107.227 C 111.467 107.265,124.474 107.265,132.377 107.227 C 140.279 107.188,133.737 107.157,117.839 107.157 C 101.940 107.157,95.475 107.188,103.471 107.227 M68.328 130.043 C 61.150 137.312,59.421 139.194,59.658 139.480 C 59.821 139.677,60.077 139.763,60.226 139.670 C 60.375 139.578,60.426 139.618,60.340 139.758 C 60.253 139.898,63.955 143.771,68.568 148.365 L 76.953 156.716 79.688 154.097 C 81.191 152.656,82.431 151.350,82.443 151.194 C 82.454 151.039,80.420 148.846,77.921 146.322 C 75.423 143.798,73.482 141.670,73.607 141.593 C 73.732 141.515,75.181 141.448,76.826 141.444 C 85.487 141.419,93.004 141.311,92.291 141.221 C 91.580 141.131,91.499 141.038,91.613 140.442 C 91.702 139.977,91.649 139.824,91.444 139.951 C 91.280 140.052,91.146 140.011,91.146 139.859 C 91.146 139.707,91.335 139.583,91.566 139.583 C 91.953 139.583,91.953 139.531,91.569 138.946 C 91.313 138.555,91.251 138.247,91.409 138.149 C 91.850 137.877,91.691 137.507,91.211 137.689 C 90.792 137.847,90.789 137.827,91.173 137.440 C 91.403 137.208,91.989 136.969,92.475 136.910 C 92.961 136.851,91.953 136.764,90.234 136.717 C 87.534 136.643,87.322 136.608,88.672 136.458 C 89.531 136.363,86.641 136.266,82.250 136.242 C 75.252 136.203,74.272 136.149,74.323 135.800 C 74.355 135.581,74.453 135.435,74.540 135.475 C 74.807 135.597,76.035 134.314,75.884 134.070 C 75.806 133.944,75.898 133.873,76.087 133.913 C 76.277 133.952,76.400 133.829,76.361 133.639 C 76.321 133.450,76.388 133.356,76.509 133.430 C 76.629 133.505,78.185 132.100,79.966 130.309 L 83.203 127.051 80.469 124.490 C 78.965 123.082,77.734 121.810,77.734 121.663 C 77.734 120.688,76.335 121.935,68.328 130.043 M81.771 128.199 C 81.771 128.240,81.097 128.914,80.273 129.696 L 78.776 131.120 80.199 129.622 C 81.522 128.231,81.771 128.006,81.771 128.199 M249.819 146.809 C 251.366 146.855,253.827 146.855,255.288 146.809 C 256.748 146.762,255.482 146.725,252.474 146.725 C 249.466 146.725,248.271 146.763,249.819 146.809 M246.732 156.250 C 246.732 161.335,246.767 163.415,246.809 160.872 C 246.852 158.330,246.852 154.170,246.809 151.628 C 246.767 149.085,246.732 151.165,246.732 156.250 M261.523 152.009 C 261.917 152.069,262.562 152.069,262.956 152.009 C 263.350 151.950,263.027 151.901,262.240 151.901 C 261.452 151.901,261.130 151.950,261.523 152.009 M270.898 152.009 C 271.292 152.069,271.937 152.069,272.331 152.009 C 272.725 151.950,272.402 151.901,271.615 151.901 C 270.827 151.901,270.505 151.950,270.898 152.009 M314.258 152.007 C 314.580 152.069,315.107 152.069,315.430 152.007 C 315.752 151.945,315.488 151.894,314.844 151.894 C 314.199 151.894,313.936 151.945,314.258 152.007 M338.997 152.007 C 339.320 152.069,339.847 152.069,340.169 152.007 C 340.492 151.945,340.228 151.894,339.583 151.894 C 338.939 151.894,338.675 151.945,338.997 152.007 M251.758 157.485 C 252.796 157.534,254.495 157.534,255.534 157.485 C 256.572 157.436,255.723 157.395,253.646 157.395 C 251.569 157.395,250.719 157.436,251.758 157.485 M115.430 161.117 C 115.680 161.183,116.090 161.183,116.341 161.117 C 116.592 161.052,116.387 160.998,115.885 160.998 C 115.384 160.998,115.179 161.052,115.430 161.117 M255.534 163.200 C 255.785 163.266,256.195 163.266,256.445 163.200 C 256.696 163.135,256.491 163.081,255.990 163.081 C 255.488 163.081,255.283 163.135,255.534 163.200 M76.776 177.799 C 79.972 177.841,85.128 177.841,88.234 177.799 C 91.339 177.758,88.724 177.724,82.422 177.724 C 76.120 177.724,73.579 177.758,76.776 177.799 M148.177 180.550 C 148.177 180.595,148.558 180.976,149.023 181.397 L 149.870 182.161 149.105 181.315 C 148.392 180.526,148.177 180.349,148.177 180.550 " stroke="none" fill="#00fbff" fill-rule="evenodd"></path></g></svg>